<?xml version="1.0" encoding="UTF-8"?>
<svg id="Layer_2" data-name="Layer 2" xmlns="http://www.w3.org/2000/svg" viewBox="0 0 120.12 133.34">
  <defs>
    <style>
      .cls-1 {
        fill: #fefdfd;
      }

      .cls-2 {
        fill: #e28791;
      }

      .cls-3 {
        fill: #fefcfd;
      }

      .cls-4 {
        fill: #e1838d;
      }

      .cls-5 {
        fill: #fefefe;
      }

      .cls-6 {
        fill: #fefcfc;
      }
    </style>
  </defs>
  <g id="Layer_1-2" data-name="Layer 1">
    <g id="Y9Kuc8">
      <g>
        <path class="cls-4" d="M115.13,79.25c2.08,1.01,5.23.46,4.97,3.67.02,8.63,0,40.46,0,47.93.02.81,0,1.54-.23,2.1-.16.27-.43.33-.89.35-.67.02-1.75,0-3.22.01-6.22,0-19.16,0-34.22,0-33.04-.13-73.97.24-81.09-.13-.26-.13-.37-.41-.42-.99-.07-.9-.04-2.67-.05-5.28-.02-9.79.01-30.97,0-42.23.03-1.19-.12-2.28.3-3.32.88-2.02,5.07-.8,6.04-3.64.78-5.68.14-14.11.34-21.59C5.31-7.16,92.18-22.25,111.26,38.51c1.67,4.83,2.37,9.28,2.18,14.26,0,5.79,0,16.63,0,22.18.02,1.58.1,3.47,1.59,4.25l.09.05Z"/>
        <path class="cls-3" d="M11.38,90.43c2.69-.89,8.15-.48,11.33-.53,2.23.21,3.79-.1,4.86,1.37.39.76.42,1.88.46,2.87.02,5.47.01,19.05,0,24.67-.06,2.35-.06,4.09-3.19,4.26-3.39.26-7.94.26-11.46.02-2.83-.26-3.22-1.06-3.33-3.62-.07-6.96,0-14.53-.03-21.44.18-4.3-.55-6.41,1.27-7.55l.09-.04Z"/>
        <path class="cls-5" d="M66.1,122.81c-.82-.48-.68-1.69-.7-3.9,0-1.31,0-2.62,0-3.97.08-8.25-.17-18.82.11-23.62.48-1.9,2.54-1.28,4.46-1.46,2.76.02,6.94-.11,9.58.16,3.13.18,3.13,1.91,3.19,4.26,0,5.62.02,19.2,0,24.67-.04,1.04-.06,2.16-.5,2.95-1.21,1.46-2.94,1.1-5.26,1.3-3-.11-8.36.38-10.8-.37l-.07-.04Z"/>
        <path class="cls-1" d="M54.02,90.29c.82.48.68,1.69.7,3.9,0,1.31,0,2.62,0,3.97-.08,8.25.17,18.82-.11,23.62-.48,1.9-2.54,1.28-4.46,1.46-2.76-.02-6.94.11-9.58-.16-3.13-.18-3.13-1.91-3.19-4.26,0-5.62-.02-19.2,0-24.67.04-1.04.06-2.16.5-2.95,1.21-1.46,2.94-1.1,5.26-1.3,3,.11,8.36-.38,10.8.37l.07.04Z"/>
        <path class="cls-6" d="M94.16,90.43c2.66-.86,8.06-.52,11.12-.51,2.09.22,3.55-.02,4.43,1.51.32.76.36,1.9.38,2.86.01,5.56.01,18.94,0,24.5-.06,2.3-.06,4.05-3.11,4.24-3.45.27-8.02.34-11.59-.07-2.21-.33-2.5-1.23-2.61-3.52-.07-6.96,0-14.51-.03-21.44.18-4.3-.56-6.43,1.31-7.55l.1-.04Z"/>
        <g>
          <path class="cls-5" d="M53.41,10.66c.96.09,1.29.77,1.3,1.63.03,2.28,0,7.02.01,12.99-.01,18.32.02,48.11-.02,53.4.09,2.04-2.85,1.15-5.16,1.35-6.34,0-18.3,0-25.23,0-6.93-.04-7.62.48-7.62-6,0-4.83,0-13.24,0-18.7.03-3.78-.16-6.36.63-10.06,2.84-16.9,18.27-33.1,36-34.62h.09Z"/>
          <path class="cls-2" d="M36.05,53.51c.44-.26.99-.38,1.54-.43,2.28,0,5.56-.43,7.23,1.03,1.09,1.43,1.03,7.43-.44,8.54-1.16.81-3.27.63-4.83.63-1.64-.15-3.73.08-4.59-1.5-.69-1.97-.75-6.75.97-8.19l.12-.08Z"/>
        </g>
        <g>
          <path class="cls-5" d="M65.83,79.77c-.3-.2-.36-.5-.4-.88-.06-1.81-.01-7.25-.03-14.38.25-14.23-.49-43.25.28-53.24,1.26-1.42,4.32-.19,6.27.15,15.39,4.06,27.72,18.1,30.76,33.45,1.21,5.45.57,10.29.73,16.38-.05,5.02.1,10.17-.07,15.1-.2,3.14-.89,3.52-4.03,3.66-2.31.05-4.65.01-7.1.02-5.78,0-12.47,0-18.14,0-4.28-.13-6.19.27-8.23-.24l-.04-.02Z"/>
          <path class="cls-2" d="M76.09,53.51c.44-.26.99-.38,1.54-.43,2.28,0,5.56-.43,7.23,1.03,1.09,1.43,1.03,7.43-.44,8.54-1.16.81-3.27.63-4.83.63-1.64-.15-3.73.08-4.59-1.5-.69-1.97-.75-6.75.97-8.19l.12-.08Z"/>
        </g>
      </g>
    </g>
  </g>
</svg>