<?xml version="1.0" encoding="UTF-8"?>
<svg id="Layer_2" data-name="Layer 2" xmlns="http://www.w3.org/2000/svg" viewBox="0 0 141.63 142">
  <defs>
    <style>
      .cls-1 {
        fill: #fefdfd;
      }

      .cls-2 {
        fill: #fdfcfc;
      }

      .cls-3 {
        fill: #e1838d;
      }

      .cls-4 {
        fill: #fefefe;
      }
    </style>
  </defs>
  <g id="Layer_1-2" data-name="Layer 1">
    <g id="Y9Kuc8">
      <g>
        <path class="cls-3" d="M.6,37.52C15.53-10.97,58.23,1.8,96.7.84c12.66-.34,24.27,5.88,33,15.2,4.67,4.8,7.55,11.37,9.7,17.45,1.61,3.72,2.46,6.83,2.18,11.25.02,13-.01,27.21,0,41.02,0,7.1,0,13.17,0,16.5-.05,1.25.12,2.13-.6,2.94-1.14.82-2.78.64-4.2.73-3.92.07-11.05-.04-14.78.07-3.84.02-4.48,1.29-4.43,4.9-.03,6.37,0,20.41-.01,26.49-.04,1.35.08,2.8-.37,3.92-.43.72-1.17.64-2.03.68-11.48,0-76.74,0-88.5,0-3,.11-2.36-1.59-2.5-4.95,0-4.44,0-12.61,0-19.21-.09-3.08.31-9-.51-10.42-.62-1.25-2.34-1.42-5.46-1.46-3.96-.04-10.03.02-13.43-.04-1.93-.04-3.15-.16-3.8-.57-.8-.53-.79-1.55-.81-2.53.42-12.64-.78-52.33.45-65.19l.03-.12Z"/>
        <g>
          <path class="cls-4" d="M10.02,43.99c1.28-16.11,14.07-31.08,30.29-32.7,3.31-.3,4.66,1.14,5.68,3.77,5.18,11.97,22.97,53.04,27.7,64,.54,1.29,1.27,3.14.7,4.19-.76,1.46-4.98,1.57-7.02,1.57-5.63,0-14.78,0-21.56,0-4.92-.07-7.65.2-9.95-.69-2.16-1.24-1.51-4.29-1.71-6.54,0-8.78,0-25.11,0-35.35.34-5.16-1.56-7.33-7.08-6.43-3.61.82-2.99,3.32-3.06,8.14,0,10.85,0,25,0,36.55,0,2.95,0,5.8,0,8.68-.04,3.19.08,5.09-1.71,5.99-3.46,1.43-8.87,1.37-11.13-2.01-1.32-2.21-1.09-5.29-1.17-7.89.07-13.72-1.31-27.69,0-41.07l.02-.19Z"/>
          <path class="cls-4" d="M87.69,83.96c-2.07-1.07-3.26-3.2-4.3-5.25-2.41-5.24-5.14-11.08-6.65-16.06-.65-2.5.13-4.34,1.17-6.76,1.42-3.26,3.59-8.24,5.96-13.7,4.89-10.96,9.31-21.94,12.47-28.32,3.28-5.97,15.36-.02,19.7,2.99,10.59,7.12,16.3,19.9,15.86,32.42,0,8.16,0,27.48,0,37.81-.14,3.69.39,5.75-1,7.53-2.13,1.99-8.56,1.68-11.03.81-1.72-.62-2.03-1.8-2.13-3.48-.16-11.57.01-41.91-.07-52.03-.04-1.31-.2-2.6-1.26-3.37-1.93-1.35-6.78-1.47-8.22.92-.89,1.54-.6,4.15-.66,7.85,0,7.08,0,14.7,0,22.15-.02,4.96.05,9.27-.05,12.07.04,2.75-1.23,4.61-4.05,4.97-4.24.53-11.14,1.29-15.6-.47l-.13-.06Z"/>
          <path class="cls-4" d="M35.45,95.51c1.13-1.68,3-1.53,6.29-1.58,2.3,0,5.19,0,8.3,0,4.25,0,8.95,0,13.2,0,3.5.03,6.81-.08,10.16.08,3.08.2,3.81.82,4.04,3.95.27,8.82.05,18.94.1,27.59,0,7.38-1.6,6.2-8.9,6.41-6.21,0-15.05,0-21.55,0-8.39-.44-13.14,2.45-13.29-8.18-.29-6.95.43-14.88.61-21.69.11-2.05.07-4.87.97-6.49l.05-.09Z"/>
          <path class="cls-2" d="M89.21,131.32c-1.63-.67-.89-6.12-1.05-8.7.03-7.76-.06-16.12.04-23.91-.04-3.41,1.22-4.39,4.23-4.59,3.09-.24,6.93-.33,9.95-.03,1.75.23,2.98.75,3.68,1.65,1.47,2.13,1.04,5.15,1.24,7.89.24,5.74.69,11.61.65,17.38-.05,6.33.03,10.91-7.11,10.89-3.36-.05-8.76.5-11.55-.53l-.08-.05Z"/>
          <path class="cls-1" d="M87.02,10.45c.55.64-.29,2.23-1.51,5.09-2.03,4.66-3.97,9.11-6.28,14.4-1.78,4.09-3.47,7.96-5.13,11.76-.82,1.46-1.8,5.65-3.8,4.72-1.53-.89-3.63-5.57-5.33-9.49-3.27-8.04-7.23-16.09-9.77-24.36-.16-1.16.18-1.91,1.23-2.28,1.63-.67,7.56-.32,11.33-.41,4.81,0,9.41,0,13.61,0,3.17.01,5.07-.05,5.61.53l.04.04Z"/>
        </g>
      </g>
    </g>
  </g>
</svg>