<?xml version="1.0" encoding="UTF-8"?>
<svg id="Layer_2" data-name="Layer 2" xmlns="http://www.w3.org/2000/svg" viewBox="0 0 108.39 105.83">
  <defs>
    <style>
      .cls-1 {
        fill: #fefdfd;
      }

      .cls-2 {
        fill: #e1838c;
      }

      .cls-3 {
        fill: #fcfbfb;
      }

      .cls-4 {
        fill: #fdfdfd;
      }
    </style>
  </defs>
  <g id="Layer_1-2" data-name="Layer 1">
    <g id="Y9Kuc8">
      <g>
        <path class="cls-2" d="M54.42,0c13.12,1.11,25.82,8.48,33.34,19.27,2.01,3.2,6.07,8.09,3.62,11.82-1.4,1.73-3.95,2.35-6.03,3.02-8.94,2.67-17.62,6.2-26.62,8.84-2.1.74-5.75,1.43-5.29,4.32.19,1.46,1.37,3.86,1.94,5.8.58,1.92,1.04,3.87,1.62,5.79,2.33,7.97,6.58,15.35,8.66,23.41,2.51,10.44,5.91,4.1,12.25,1.94,3.45-.64,7.49-.48,11.03-.17,2.67.38,4.94,2.2,7.05,3.84,5.2,4.4,13.86,6.52,12.21,14.79-.49,2.99-2.93,2.81-4.96,1.69-6.98-3.26-12.72-11.77-21.07-10.93-1.45.22-2.83.84-4.1,1.58-7.56,4.48-15.1,10.75-24.05,10.81-8.88-.07-15.77-8.74-24.04-11.53-8.22-3.1-12.56,2.1-18.18,6.5-4.69,4.01-12.49,7.62-11.08-2.19.54-3.87,5.46-6.02,8.35-8.41,7.35-5.44,15.39-8.19,24.32-5.01,7.31,2.34,13.09,9.77,20.83,10.16,2.35.2,4.63-.57,4.01-3.37-.42-2.53-1.44-5.43-2.26-7.88-3.68-10.91-8.08-21.83-11.42-32.84-1.24-2.56-3.66-2.66-6.1-1.45-2.33.99-4.91,2.24-7.17,3.04-7.37,1.87-14.53,4.8-21.8,6.83-3.03.98-6.23,2.35-7.59-1.63-2.8-7.39-2.09-15.49-.25-23.01C7.64,12.49,32.25.7,54.25,0h.17Z"/>
        <path class="cls-1" d="M37.62,15.72c5.14-1.26,11.98,5.5,15.1,9.52,5.93,7.87.84,11.38-7.52,13.82-7.75,2.79-14.08,3.08-13.66-6.4.34-4.8,1.39-14.94,5.94-16.89l.14-.05Z"/>
        <path class="cls-4" d="M53.05,10.12c6.57-.37,12.47,2.37,18.17,5.9,2.63,1.53,4.68,3.09,6.35,5.58.73,1.04,1.83,2.32,1.53,3.63-.16.64-.67,1.13-1.26,1.48-2.46,1.31-5.55,1.35-8.05,2.81-1.75,1.04-3.55,1.45-4.91-.42-1.2-1.76-2.05-3.71-3.02-5.59-2.19-4.1-6.19-6.85-9.42-10.12-1.44-1.22-2.07-2.56.44-3.22l.16-.04Z"/>
        <path class="cls-3" d="M9.6,40.54c.92-3.6,3.21-8.61,5-11.71,1.7-2.47,5.6-6.05,7.69-8.03,3.14-.91,2.46,1.32,1.88,3.36-1.01,3.43-1.29,7.29-.99,10.8.38,4.67,3.31,9.42-2.89,11.53-1.82.67-3.83,1.31-5.6,1.9-1.56.56-3.48,1.94-4.31,1.4-.78-.54-.76-1.64-.85-2.54-.07-2.1-.32-4.59.03-6.56l.03-.16Z"/>
      </g>
    </g>
  </g>
</svg>