<?xml version="1.0" encoding="UTF-8"?>
<svg id="Layer_2" data-name="Layer 2" xmlns="http://www.w3.org/2000/svg" viewBox="0 0 116.4 88.58">
  <defs>
    <style>
      .cls-1 {
        fill: #f5f3f3;
      }

      .cls-2 {
        fill: #e1838d;
      }

      .cls-3 {
        fill: #fefefe;
      }

      .cls-4 {
        fill: #f4f3f3;
      }

      .cls-5 {
        fill: #fdfdfd;
      }
    </style>
  </defs>
  <g id="Layer_1-2" data-name="Layer 1">
    <g id="Y9Kuc8">
      <g>
        <path class="cls-2" d="M12.41,1.3c27.77-.07,57.36-2.24,84.79-.83,2.93.22,6.47.68,8.6,2.66,1.94,1.72,2.39,4.34,2.44,7.22.05,2.43-.03,5.28-.12,8.35-.18,6.99-.67,14.42-.11,21.34-.08,5.37,4.42,8.45,6.31,13.51,1.31,4.17,1.51,8.56,1.83,12.96.25,4.24.31,9.11.18,13.12-.1,3.01-.27,5.86-2.14,7.41-1.89,1.68-5.54,1.8-7.26-.36-1.56-1.85-1.93-5.06-2.68-6.31-.49-1.01-1.43-1.18-2.43-1.14-10.72,0-76.41-.03-87.13-.04-3.44-.29-3.62,2.9-5.04,5.8-1.01,2.76-4.88,4.54-7.26,3.09-2.9-1.71-2-6.11-2.32-9.35-.06-2.46-.09-5.16-.08-7.68.18-5.38-.38-11.19,1.85-15.89.68-1.53,1.52-3.04,2.3-4.53,1.47-2.7,2.53-5.49,2.76-8.48.72-8.02-.5-19.07-.49-28.05.04-4.83-.22-11.89,5.81-12.74l.18-.04Z"/>
        <path class="cls-3" d="M11,68.02c-2.04-4.97.02-10.93,2.93-15.23,3.32-4.19,10.06-4.51,15.14-4.91,19.47.5,40.26-1.65,59.3-.29,3.31.33,6.86.7,9.82,2.29,3.02,1.77,5.95,4.46,6.9,7.82.71,2.88.41,7.69-.05,9.73-.24,1.05-.79,1.58-1.78,1.56-8.73,0-55.66.01-72.91,0-9.03,0-15.79.02-17.96-.02-.6-.05-.98-.27-1.33-.88l-.05-.08Z"/>
        <path class="cls-5" d="M17.29,11.26c1.09-1.12,3.42-1.07,5.12-1.01,23.91,1.03,47.98-.51,71.88-.09,4.72.24,4.67,4.05,4.61,7.73-.08,3.28.25,8.39-.42,9.88-.4.99-1.18,1.02-2.39.57-11.38-6.05-25.47-4.72-35.5,3.31-1.93,1.19-3.8,1.17-5.72-.09-2.19-1.44-4.14-3.48-6.55-4.57-4.86-2.16-11.08-2.82-16.57-2.3-3.66.45-7.4,1.88-10.65,4.08-5.58,4.25-4.9.22-4.92-4.36.03-3.4-.28-7.83.05-10.67.11-.88.38-1.78.95-2.39l.09-.09Z"/>
        <path class="cls-4" d="M67.96,37.03c3.9-4.53,15.3-3.41,20.74-1.78.86.39,2.12,1.04,1.94,1.9-.25.91-4.88.38-6.62.52-3.68,0-8.57,0-12.04,0-2.24-.09-3.86.3-4.04-.57v-.06Z"/>
        <path class="cls-1" d="M47.43,37.32c.04.6-1.52.48-3.85.49-3.56,0-8.13,0-11.9,0-1.94-.02-3.01,0-4.08.15-.47.04-1.01.03-1.4-.21-1.17-.94.41-2.13,1.43-2.67,5.24-2.21,11.28-2.49,16.48-.19,1.14.53,2.85,1.33,3.32,2.37v.06Z"/>
      </g>
    </g>
  </g>
</svg>