<?xml version="1.0" encoding="UTF-8"?>
<svg id="Layer_2" data-name="Layer 2" xmlns="http://www.w3.org/2000/svg" viewBox="0 0 118.06 132.77">
  <defs>
    <style>
      .cls-1 {
        stroke: #e1848e;
        stroke-miterlimit: 10;
        stroke-width: 2px;
      }

      .cls-1, .cls-2 {
        fill: #e1838d;
      }

      .cls-3 {
        fill: #fff;
      }
    </style>
  </defs>
  <g id="Layer_1-2" data-name="Layer 1">
    <g>
      <g id="E53dNY.tif">
        <g>
          <path class="cls-2" d="M21.63,50.44c1.96,5.93-.47,13.88-.77,20.04-.54,9.03-.37,18.89,4.71,26.69,1.19,1.98,3.25,2.92,5.5,2.9,5.69.14,11.47.13,17.17.07,1.4-.02,3.35-.16,2.58-2.17-.35-1.01-1.07-2.31-1.49-3.44-1.02-2.53-1.64-5.27-1.62-8.01.02-8.57,6.09-15.03,10.73-22.02.41-.6,1.04-1.51,1.59-1.71,1.09-.3,1.32,1.54,1.48,2.38.48,3.41-.27,6.96-1.56,10.19-1.11,2.82-3.52,5.83-2.22,8.96,1.36,3.22,6.13,4.52,9.68,4.23,1.45-.04,3.54-.86,4.55-.77,1.74.23.32,2.98,0,3.99-.74,1.93-1.76,3.74-2.71,5.56-1.17,2.27.69,2.39,2.33,2.35,2.36-.05,4.73-.11,7.1-.15,3.49-.07,6.98-.11,10.47-.15,1.29-.02,2.61-.21,3.73-.85.91-.51,1.69-1.32,2.34-2.16,9.27-11.61,11.42-28.15,3.91-41.33-2.35-4.4-5.35-8.44-8.52-12.27-5.33-6.82-16.26-15.81-17.68-23.94-.75-6.24,6.19-8.91,4.99-14.02C76.65.36,71.21,0,67.26,0c-15.2,0-25.41,11.48-26.97,26.12-.29,2.16-1.48,2.76-3.58,2.53-6.46-.71-13.32.34-18.27,4.95-3.18,2.84-5.29,7.25-1.92,10.81,1.78,1.83,4.21,3.44,5.08,5.98l.02.05ZM29.19,39.81c.72-.97,2.53-.85,3.76-.9,2.36,0,4.71.54,6.79,1.66,2.08,1.05,4.02,2.82,6.27,2.69,2.23-.12,4.3-2.01,4.86-4.06.69-3-.34-6.11-.11-9.17.2-7.35,2.62-15.24,9.19-18.52.61-.28,1.15-.41,1.53-.32.57.11.77.72.72,1.62-3.07,19.39,21.63,32.55,28.81,49.73,2.38,5.56,2.74,12.08,1.06,17.93-1.03,3.69-2.82,7.19-5.2,10.21-.81,1.03-1.79,2.15-2.34,2.46-.11.08-.25.12-.36.1-.47-.22-.12-1.3-.06-1.87.99-4.65,1.1-9.61-.67-14.03-1.16-2.79-3.27-6.09-6.56-6.32-.97-.06-1.99.33-2.93.38-1.82.07-1.01-2.93-1.2-4.49-.15-4.6-1.4-9.04-3.8-12.94-2.34-3.66-7.07-9.2-11.86-8.6-3.08.48-4.35,3.68-4.86,6.43-1.24,5.48-5.14,9.94-8.25,14.51-5.6,7.71-8.95,17.33-6.95,26.87.32,2.11-.48,1.86-1.55.43-10.46-14.34,2.41-35.13-4.89-49.75-.54-1.15-1.92-2.81-1.42-4l.02-.03Z"/>
          <path class="cls-3" d="M61.84,11.33c.55.41.36,1.83.25,2.65-2.35,22.44,31.31,35.61,31.03,58.89.01,7.37-2.99,14.76-8.19,19.98-1.25,1.1-1.01-.42-.83-1.37,1.31-6.06,1.14-12.99-2.9-17.97-4.02-4.82-7.07-.77-8.25-2.66-.25-.52-.21-1.5-.2-2.2.17-5.95-1.48-11.74-5.04-16.49-2.9-3.86-9.4-10.12-13.78-4.84-.98,1.26-1.34,2.88-1.71,4.41-.37,1.58-.89,3.07-1.65,4.55-1.79,3.5-4.39,6.82-6.65,10.07-5.63,7.74-8.92,17.41-6.89,26.97.29,2.17-.72,1.44-1.64.18-6.65-9.31-3.68-21.59-2.77-32.42.66-6.8.59-13.44-3.23-19.4-1.5-2.92,2.04-2.79,4.32-2.74,2.4.1,4.74.84,6.81,2.08,1.94,1.1,3.69,2.52,5.81,2.21,1.38-.19,2.65-1.02,3.52-2.1,2.17-2.69.86-6.26.89-9.4-.18-7.85,2.18-16.97,9.49-20.35.69-.27,1.24-.32,1.57-.07l.02.02Z"/>
          <path class="cls-3" d="M52.34,100c.98.57,2.2.65,3.33.63,2.85-.05,5.72-.12,8.58-.19,2.02.02,4.01-.73,5.1-2.51.84-1.27,5.14-9.14,3.4-9.98-.48-.25-1.4-.03-2.46.26-2.62.77-5.53.71-8.13-.21-5.63-2.04-5.9-6.06-3.18-10.84,1.98-3.92,3.2-8.48,2.59-12.83-.11-.79-.39-2.2-1.03-2.48-.71-.27-1.47.89-1.92,1.53-4.73,7.28-11.02,13.98-11.23,22.82-.11,3.94,1.05,7.77,2.79,11.26.54,1.09,1.21,1.99,2.1,2.51l.05.03Z"/>
        </g>
      </g>
      <path class="cls-1" d="M28.29,97.72c-7.44.45-14.78-1.05-22.34-.22-1.13.14-2.35.37-3.21,1.06-2.18,1.75-1.57,7.26-1.72,9.91.02,4.83-.06,9.89.04,14.79.1,2.33.26,4.87,1.37,6.92.5.9,1.25,1.71,2.15,1.57,13.63-.04,82.08.05,107.92,0,.83-.03,1.69-.1,2.35-.61,1.36-1.15,1.77-3.7,1.99-5.52.4-5.18.13-10.03.21-15.35-.02-2.64.07-5.26-.26-7.88-.54-5.08-3.26-5.87-7.86-5.87-4.64-.16-8.08.15-13.2.43-5.99.33-12.12,0-18.01-.09-17.01-.44-33.99-.34-49.38.86h-.06Z"/>
      <path class="cls-3" d="M32.03,103.23c-6.59.3-13.09-.69-19.79-.15-1,.09-2.08.24-2.85.7-1.93,1.15-1.39,4.78-1.53,6.52.02,3.18-.05,6.51.04,9.73.09,1.53.23,3.2,1.21,4.56.44.59,1.1,1.13,1.9,1.04,12.07-.03,72.69.03,95.57,0,.73-.02,1.49-.06,2.08-.4,1.2-.75,1.56-2.44,1.76-3.63.36-3.41.11-6.6.19-10.1-.02-1.74.06-3.46-.23-5.19-.48-3.34-2.89-3.87-6.96-3.86-4.1-.1-7.15.1-11.69.28-5.31.21-10.74,0-15.95-.06-15.06-.29-30.1-.22-43.73.57h-.05Z"/>
    </g>
  </g>
</svg>