<?xml version="1.0" encoding="UTF-8"?>
<svg id="Layer_2" data-name="Layer 2" xmlns="http://www.w3.org/2000/svg" viewBox="0 0 133.51 100.11">
  <defs>
    <style>
      .cls-1 {
        fill: #e2848e;
      }

      .cls-2 {
        fill: #e1838d;
      }

      .cls-3 {
        fill: #fefefe;
      }
    </style>
  </defs>
  <g id="Layer_1-2" data-name="Layer 1">
    <g id="Y9Kuc8">
      <g>
        <path class="cls-1" d="M133.3,91.92c.17,2.18.82,8.26-1.53,8.15-12.48.04-114.18,0-129.38.02-1.1.1-1.97-.28-2.1-1.54-.25-1.92-.94-8.6,1.46-8.45,26.95-.04,76.69,0,105.78-.02,11.73,0,20.67,0,24.04,0,1.08-.04,1.55.52,1.71,1.73l.02.1Z"/>
        <g>
          <path class="cls-2" d="M75.52,1.66c1.07,1.34,1.12,3.39,1.27,5.19.16,9.78,6.97,9.55,14.38,12.99,9.33,4.2,17.28,9.75,23.38,16.94,9.17,10.88,14.75,27.16,13.33,41.7-.29,1.48-.91,1.59-2.08,1.59-14,0-105.22,0-118.33,0-1.8-.04-1.79-.85-2.04-3.3-.09-1.52-.09-3.42,0-5.09,1.59-25.64,17.14-44.75,41.09-53.55,3.95-1.42,8.74-2.83,9.63-7.51,1.14-3.91-.25-8.34,3.33-9.96,2.29-.84,4.86-.59,7.37-.65,2.85.09,6.74-.39,8.56,1.57l.08.1Z"/>
          <path class="cls-3" d="M16.25,68.77c-.67-1.69.13-7,.98-9.72,11.44-40.22,73.1-46.26,94.08-11.3,2.72,4.36,4.84,9.77,5.74,15.06.35,3.08,1.1,5.98-.73,7.1-13.5.62-57.99.02-78.79.22-8.81,0-15.7,0-18.81,0-1.03-.01-2.05-.15-2.43-1.27l-.03-.08Z"/>
        </g>
      </g>
    </g>
  </g>
</svg>