<?xml version="1.0" encoding="UTF-8"?>
<svg id="Layer_2" data-name="Layer 2" xmlns="http://www.w3.org/2000/svg" viewBox="0 0 103.9 104.94">
  <defs>
    <style>
      .cls-1 {
        fill: #fdfcfc;
      }

      .cls-2 {
        fill: #e1838d;
      }

      .cls-3 {
        fill: #fdfdfd;
      }
    </style>
  </defs>
  <g id="Layer_1-2" data-name="Layer 1">
    <g id="Y9Kuc8">
      <g>
        <path class="cls-2" d="M17.18,3.91C24.91.77,33.97.51,42.35.25,49.34.1,56.35-.05,63.34.02c33.76-.21,41.31,14.84,40.49,46.02-.18,10.15.11,20.46-.98,30.55-1.71,16.56-10.4,25.57-27.06,27.41-8.99,1.12-18.27.92-27.35.96-14.33-.42-29.81.67-39.96-9.44C-1.25,84.96.1,69.24.02,55.79.97,37.84-2.62,12.07,17.02,3.98l.16-.07Z"/>
        <g>
          <path class="cls-3" d="M19.46,13.75c9.28-4.05,20.63-3.36,30.75-3.74,9.46-.07,20.53-.7,28.28,2.04,16.23,5.59,14.71,23.75,15.21,38.97.06,8.72.79,18.03-1.31,26.48-2.42,10.66-11.29,15.28-21.71,16.17-6.89.71-14.06.6-21.02.81-12.1-.12-27.25,1.5-34.55-6.67-6.36-8.42-4.26-23.44-4.7-34.13.02-6.65-.07-13.21.13-18.92.15-7.69,1.54-17.8,8.79-20.95l.12-.06Z"/>
          <g>
            <path class="cls-2" d="M35.64,26.53c1.32-1.06,3.58-.87,6.8-.97,8.71-.09,15.79-.71,23.12,3.74,3.02,1.58,4.74,4.59,6.12,7.55,3.18,5.7,1.18,12.91-2.95,17.5-4.01,4.99-10.5,5.57-16.44,6.14-2.17.19-4.1.42-5.14,1.46-2.98,3.55.39,12.82-2.08,16.08-1.99,2.64-11.84,1.57-11.2-2.53,0-6.21-.03-30.35-.03-42.51.02-2.79-.28-4.59,1.69-6.38l.1-.08Z"/>
            <path class="cls-1" d="M46.34,37.84c.7-.92,2.34-1.24,4.31-1.37,7.03-1.02,12.69,4.9,8.41,11.2-1.16,1.63-3.19,1.55-5.06,1.59-2.16-.08-4.83.28-6.73-.57-2.06-1.34-1.51-4.44-1.67-7.34.01-1.45.1-2.64.66-3.4l.08-.11Z"/>
          </g>
        </g>
      </g>
    </g>
  </g>
</svg>