<?xml version="1.0" encoding="UTF-8"?>
<svg id="Layer_2" data-name="Layer 2" xmlns="http://www.w3.org/2000/svg" viewBox="0 0 112.53 88.38">
  <defs>
    <style>
      .cls-1 {
        fill: #e1838d;
      }
    </style>
  </defs>
  <g id="Layer_1-2" data-name="Layer 1">
    <g id="Y9Kuc8">
      <g>
        <path class="cls-1" d="M49.47.16c17.79-1.1,35.51,3.45,51.06,12.98,4.47,3.06,10.48,6.52,11.89,11.99.98,5.78-4.8,6.12-9.02,3.33-1.85-1.11-3.73-2.64-5.51-3.99-7.68-5.99-17.02-9.43-26.43-11.68-12.37-3.24-25.78-2.41-37.71,2.05-6.06,2.32-12.51,5.42-18.24,9.43-3.63,2.47-8.14,6.77-12.45,6.33C1.16,30.41-.08,28.93,0,26.82c.25-4.78,5.04-8.36,8.69-11.1C20.49,7.41,34.91,1.48,49.27.18l.2-.02Z"/>
        <path class="cls-1" d="M55.58,23.71c12.63.1,27.09,3.93,36.97,12.71,2.69,2.38,5.16,7.84,1.23,9.88-3.16,1.37-7.59-1.21-10.62-3.17-6.75-4.38-14.91-7.61-22.85-8.25-11.25-.58-23.01,2.42-32.19,8.98-10.58,7.64-15.2-.92-6.61-8.7,9.37-7.47,22.12-10.99,33.87-11.45h.2Z"/>
        <path class="cls-1" d="M76.92,62.99c-5.2,1.22-9.72-2.39-15.01-3.61-3.99-1-8.18-.98-12.18.17-3.6,1-7.01,3.05-10.11,3.62-4.21.9-7.22-1.7-5.87-5.77,2.11-6.44,12.84-9.71,18.69-10.7,8.25-1.21,19.58,2.34,25.6,8.49,2.17,2.31,2.35,6.81-.98,7.76l-.14.05Z"/>
        <path class="cls-1" d="M52.94,70.7c9.33-3.71,17.08,8.55,9.6,15.33-4.09,3.79-11.4,2.87-14.14-1.97-2.81-4.57-.65-11.29,4.36-13.29l.18-.08Z"/>
      </g>
    </g>
  </g>
</svg>