<?xml version="1.0" encoding="UTF-8"?>
<svg id="Layer_2" data-name="Layer 2" xmlns="http://www.w3.org/2000/svg" viewBox="0 0 123.3 123.54">
  <defs>
    <style>
      .cls-1 {
        fill: #fefdfd;
      }

      .cls-2 {
        fill: #e1838d;
      }

      .cls-3 {
        fill: #fefcfc;
      }

      .cls-4 {
        fill: #e1848e;
      }
    </style>
  </defs>
  <g id="Layer_1-2" data-name="Layer 1">
    <g id="Y9Kuc8">
      <g>
        <path class="cls-2" d="M42.04.4c3.72-1.04,6.23,3.29,5.46,6.56-.31,1.76-1.19,3.21-2.12,4.66-2.35,3.63-6.02,9.1-8.67,12.82-1.59,2.48-4.84,5.33-7.83,4.44-2.64-.62-3.58-3.56-2.95-6.13,1.42-5.18,5.28-9.57,8.16-14.03,2.3-2.94,4.07-6.93,7.77-8.27l.18-.05Z"/>
        <path class="cls-2" d="M80.17.37c3.26-.82,5.55,2.66,4.99,5.69-.27,2.02-1.32,3.77-2.36,5.45-2.36,3.77-5.83,9.02-8.5,12.71-2.08,3.49-8.02,7.68-10.56,2.44-1.82-5,2.34-9.82,4.94-13.79,3.52-4.4,5.92-10.31,11.3-12.47l.18-.04Z"/>
        <path class="cls-2" d="M60.44.25c3.49-1.35,6.16,3.13,5.77,6.17-.15,1.83-1.06,3.34-2.01,4.85-2.66,4.17-6.65,10.4-9.73,14.41-5,6.73-12.88,2.34-9.06-5.34,2.88-5.24,6.54-10.31,9.85-14.86,1.46-1.85,2.86-4.1,5.01-5.16l.16-.07Z"/>
        <g>
          <path class="cls-4" d="M77.59,121.48c-7.03,2.02-14.64,1-21.89,1.57-15.5.43-34.03,2.84-46.15-8.77C-5.3,98.81,1.81,72.26,1.03,52.76c-.08-2.38-.28-4.83.41-7.17,1.87-6.47,9.51-8.07,15.46-7.65,21.75,1.22,46.41-2.68,67.83-.31,2.49.35,5.11.8,7.26,2.21,1.79,1.11,3.28,3.06,4.84,3.69,4.91,1.16,10.3.24,14.9,3.06,7.14,4.1,12.84,12.66,11.32,21.03-2.94,12.61-10.81,16.74-22.91,18.32-1.34.54-1.65,1.74-1.72,3.16.31,14.08-7.11,27.48-20.65,32.31l-.19.06Z"/>
          <path class="cls-3" d="M11.27,49.16c.69-.61,1.66-.73,2.59-.76,5.73-.03,14,0,23-.02,19.83.06,41.09-.21,49.12.11,2.41.66,2.21,4.06,2.22,6.09,0,2.43,0,4.55,0,7.29,0,4.73,0,10.08,0,14.54-.05,6.1.1,11.01-.07,16.81-.46,7.83-6.31,16.38-14.06,18.82-11.41,2.53-24.67,1.52-37.16,1.33-2.78-.1-5.54-.31-8.29-.69-13.06-1.17-19.67-13.47-18.53-25.63-.02-8.16,0-17.33,0-25.76.01-2.9-.06-6.1.05-8.89.06-1.33.34-2.49,1.04-3.14l.1-.09Z"/>
          <path class="cls-1" d="M99.21,74.76c-1.4-.81-1.07-2.8-1.15-4.82,0-2.82,0-5.62,0-8.45.03-3.96-.62-7.55,4.42-7.1,16,.99,11.99,24.42-3.12,20.44l-.14-.08Z"/>
        </g>
      </g>
    </g>
  </g>
</svg>