<?xml version="1.0" encoding="UTF-8"?>
<svg id="Layer_2" data-name="Layer 2" xmlns="http://www.w3.org/2000/svg" viewBox="0 0 93.45 141.49">
  <defs>
    <style>
      .cls-1 {
        fill: #fefdfd;
      }

      .cls-2 {
        fill: #e28891;
      }

      .cls-3 {
        fill: #e1838d;
      }

      .cls-4 {
        fill: #fefefe;
      }

      .cls-5 {
        fill: #e2858f;
      }
    </style>
  </defs>
  <g id="Layer_1-2" data-name="Layer 1">
    <g id="Y9Kuc8">
      <g>
        <path class="cls-3" d="M92.13,140.49c-2.57,1.66-13.67.67-18.52.94-17.06.02-46.43-.02-62.97,0-4.1-.01-6.8,0-8.34-.48-2.12-.68-2.12-2.48-2.25-4.59C-.05,113.34.02,44.22.04,18.78-.29,6.92,10.22-.13,22.13.27c10.06-.14,23.75-.15,34.58-.22,8.34.07,17.82-.5,22.8.98,8.98,2.73,14.36,9.73,13.91,18.56.02,8.99,0,26.9,0,46.24,0,13.64,0,28.99,0,42.11,0,11.71,0,21.45,0,26.87-.12,1.96.26,4.29-1.25,5.66l-.04.03Z"/>
        <g>
          <path class="cls-1" d="M12.02,65.56c1.28-1.54,7.05-1.54,11.14-1.57,11.15,0,25.24,0,36.86,0,5.7.04,11.01-.13,16.47.19,4.41.32,6,1.33,6.54,5.14.71,7.05.28,14.04.39,21.35-.02,9.33.04,20.24-.03,28.88.09,12.39-2.06,11.63-13.11,11.84-15.04,0-32.8.03-48.12,0-4.89-.23-11.37.75-11.75-5.31-.53-4.41-.35-8.7-.39-13.34,0-10.8,0-24.3,0-34.63.03-4.65.02-11.35,1.93-12.47l.06-.05Z"/>
          <path class="cls-2" d="M20.27,77.53c4.21-3.55,7.58,2.97,7.79,6.7.55,4.38-1.6,9.16-4.12,10.27-3.46,1.33-5.56-2.79-6.33-5.74-1-3.58,0-8.75,2.55-11.13l.11-.1Z"/>
        </g>
        <g>
          <path class="cls-4" d="M81.4,51.25c-1.33,2.11-4.28,2.11-9.39,2.14-18.52-.31-42.06.64-57.13-.4-4.63-1.15-3.81-5.92-4.15-10.42.03-6.13-.32-14.95.37-21.01.99-11.96,11.84-11.28,21.22-11.52,8.53.02,17.14.46,25.68.64,7.19.45,17.09-.94,21.78,3.92,3.84,5.11,2.74,12.26,2.99,18.5-.19,5.51.67,14.27-1.31,18.07l-.05.08Z"/>
          <path class="cls-5" d="M20.58,23.02c4.83-3.03,8,4.53,7.61,9.81-.23,3.01-1.44,6.64-4.06,8.21-2.05,1.09-3.88-.13-5.11-2.04-2.85-4.34-2.49-12.56,1.45-15.9l.11-.09Z"/>
        </g>
      </g>
    </g>
  </g>
</svg>