<?xml version="1.0" encoding="UTF-8"?>
<svg id="Layer_2" data-name="Layer 2" xmlns="http://www.w3.org/2000/svg" viewBox="0 0 141.5 141.56">
  <defs>
    <style>
      .cls-1 {
        fill: #e1838d;
      }

      .cls-2 {
        fill: #fefefe;
      }

      .cls-3 {
        fill: #fefcfc;
      }

      .cls-4 {
        fill: #e2858f;
      }
    </style>
  </defs>
  <g id="Layer_1-2" data-name="Layer 1">
    <g id="Y9Kuc8">
      <g>
        <path class="cls-1" d="M126.74,70.21c-1.44.59-3.53-.22-5.04-1.08-2.92-1.57-5.67-3.88-9.76-4.65-12.69-1.23-25.64,1.79-37.67,5.98-4.55,1.74-10.15,3.72-12.12,8.49-1.23,2.95-.67,6.46.05,9.57,1.76,7.39,3.62,15.11,1.41,21.72-1.99,5.66-6.82,12.79-1.28,17.91,5.13,4.89,14.15,3.13,17.83-2.71,4.7-7.17,1.7-17.93,4.17-26.06,2.1-9.15,11.2-15.8,20.56-14.57,6.8.65,12.88,5.31,15.72,11.49,2.51,5.18,2.83,10.87,5.59,15.27,1.19,1.96,2.78,3.65,4.69,4.93,2.83,1.92,6.58,2.76,8.96,5.17,3.2,2.92,1.4,7.01-2.71,7.44-7.54.04-15.32-5.21-19.44-11.47-3.92-5.58-3.69-13.34-7.76-18.55-2.37-3.03-6.7-4.46-10.26-2.81-4.71,1.98-6.3,8.44-6.53,13.38-.37,7.94.07,15.86-4.66,22.43-7.76,11.15-24.65,12.98-34.16,2.72-2.49-2.6-4.57-5.78-7.33-8.01-7.83-5.9-14.7-5.01-19.31-15.72-3.03-6.82-4.26-14.37-5.82-22.1-1.04-6.56-3.53-12.72-8.35-17.43C1.99,60.22-2.68,46.04,1.52,30.28,5.45,12.85,23.34-.29,40.94,0c10.28.33,19.97,5.03,29.28,9.15,6.9,3.08,14.23,5.22,21.61,6.49,5.08.88,10.24,1.42,15.43,1.58,3.48.22,7.15-.71,9.98-2.38,2.69-1.31,5.69-3.52,8.65-3.23,3.01.49,3.34,3.77,3.25,6.4,0,10.52,0,35.72,0,46.39,0,2.17-.06,4.92-2.32,5.78l-.09.04Z"/>
        <path class="cls-2" d="M33.55,81.64c1.13-.63,2.96-.67,5.16-.66,4.05.14,9.18-.58,11.94,3.05,1.73,2.19,2.55,6.06,3.48,9.84,1.33,5.58,2.22,11.13-.15,14.96-2.75,4.8-10.05,5.8-14.07,2.1-2.1-1.86-3.24-4.81-4.2-8.48-1-3.92-2.16-8.94-2.99-13.04-.53-2.41-1.31-6.83.72-7.7l.1-.06Z"/>
        <g>
          <path class="cls-2" d="M115.56,29.67c3.25,3.29,1.98,8.92,2.27,14.08,0,1.9.01,3.92-.17,5.75-.16,4.48-3.38,5.23-7.36,5.35-3.52.17-7.32.19-10.87.41-6.42.33-10.93,1.31-16.67,2.75-6.11,1.51-12.06,3.31-17.76,6.02-7.85,3.8-15.91,8.59-24.96,8.25C7.2,70.78-.44,23.35,32.6,12.16c11.95-4.12,21.56,1.63,32.61,6.45,13.14,5.96,27.07,8.88,41.37,9.43,2.94.23,6.42-.17,8.88,1.54l.1.08Z"/>
          <path class="cls-4" d="M64.78,38.18c.97-1.36,3.05-1.76,6.1-1.79,2.48-.03,5.54,0,8.2-.01,3.02,0,5.48,0,6.99.84,2.77,1.5,2.83,5.95.53,7.89-2.09,1.91-8.64,1.4-12.53,1.47-2.51-.08-5.41.08-7.59-.98-2.53-1.29-3.2-5.05-1.76-7.32l.07-.1Z"/>
          <g>
            <path class="cls-1" d="M38.04,24.53c9-1.59,17.08,4.93,18.73,13.51,2.59,11.04-6.05,20.43-17.16,20.23-19.69-.32-21.3-30.98-1.78-33.7l.21-.03Z"/>
            <path class="cls-3" d="M39.44,34.48c2.99-.47,6.27,1.26,7.28,4.16,1.46,3.9-1.38,9.37-5.67,9.73-8.5.52-10.17-12.22-1.8-13.86l.19-.03Z"/>
          </g>
        </g>
      </g>
    </g>
  </g>
</svg>