<?xml version="1.0" encoding="UTF-8"?>
<svg id="Layer_2" data-name="Layer 2" xmlns="http://www.w3.org/2000/svg" viewBox="0 0 120.15 113.47">
  <defs>
    <style>
      .cls-1 {
        fill: #e1838d;
      }

      .cls-2 {
        fill: #fefefe;
      }
    </style>
  </defs>
  <g id="Layer_1-2" data-name="Layer 1">
    <g id="Y9Kuc8">
      <g>
        <path class="cls-1" d="M72.26,39.6c4.17,1.31,19.86-19.23,24.98-22.77,2.24-2.19,4.87-2.46,7.15.17,2.27,2.38,1.55,4.72-.56,6.68-6.58,6.83-13.74,13.35-20.07,20.31-2.17,2.12-3.2,5.23.59,6.01,7.35,1.09,14.97-5.52,19.95-10.55,2.65-2.71,6.3-6.6,8.49-8.6.74-.65,1.55-1.29,2.56-1.25,1.97.11,4.64,2.6,4.8,4.81.09,1.63-1.16,2.94-2.29,4.08-5.07,4.81-9.88,11.17-15,15.4-7.56,6.12-19.2,7.83-27.97,3.35-1.25-.5-2.4-.71-3.5-.26-2.19.93-6.29,5.6-3.98,7.54,4.29,4.28,27.57,27.56,35.97,35.96,1.34,1.34,2.58,2.58,3.87,3.87,1.05,1.12,1.8,1.5,1.89,2.8-.11,2.87-2.69,5.49-5.38,6.25-1.71.36-2.22-.56-3.71-1.97-7.83-7.5-26.67-26.65-31.49-30.73-.33-.12-.67-.08-1.12.17-.69.38-1.71,1.27-3,2.52-2.15,2.09-4.87,5.09-7.28,7.55-3.77,3.98-6.2,6.08-10.44,1.96-2-1.76-3.63-4.16-5.08-4.61-1.55-.54-2.93.82-4.08,1.86-6.99,6.75-13.62,14.15-20.79,20.64-1.61,1.48-3.74,3.04-5.91,1.78-1.51-.88-2.61-2.59-2.99-4.27-.31-1.75.62-2.5,2.02-3.95l7.05-7.25c6.07-6.32,12.59-12.77,15.56-16.1.67-.92.34-1.74-.72-3.01C20.84,65.55.59,52.43,0,35.91c-.06-8.11,3.02-16.36,9.02-22.01,1.03-.91,2.2-1.79,3.41-2.37,1.77-.79,2.13-.06,3.27,1.03,8.7,8.6,19.02,18.81,28.26,27.95,6.75,6.66,12.39,12.29,14.1,13.92.94.71,1.65-.27,2.57-1,3.75-3.39,3.71-5.54,1.72-10.31-1.18-3.46-1.44-7.28-1.07-10.88,1.35-11.93,11.85-21.21,19.91-29.56,1.8-1.66,3.39-3.37,5.87-2.37,2,.87,4.89,3.07,4.37,5.48-.21.66-.68,1.29-1.17,1.85-2.2,2.44-6.59,6.52-9.72,9.59-4.25,4.37-9.38,9.48-9.43,15.92.12,1.97-.42,4.99,1.05,6.4l.09.05Z"/>
        <path class="cls-2" d="M52.24,82.33c-2.16.67-4.19-1.36-5.75-2.68-7.49-6.59-24.88-24.24-30.66-31.35-1.25-1.56-2.13-2.91-3.08-4.93-2.53-5.31-3.14-11.87-.47-16.98.7-1.36.94-1.77,1.65-1.04,5.99,6.12,41.76,41.05,47.09,46.88.54,2.53-3.95,5.52-5.71,7.7-.87.9-1.77,1.94-2.94,2.36l-.13.04Z"/>
      </g>
    </g>
  </g>
</svg>