<?xml version="1.0" encoding="UTF-8"?>
<svg id="Layer_2" data-name="Layer 2" xmlns="http://www.w3.org/2000/svg" viewBox="0 0 138.87 96.35">
  <defs>
    <style>
      .cls-1 {
        fill: #fcfbfb;
      }

      .cls-2 {
        fill: #fdfcfc;
      }

      .cls-3 {
        fill: #e1838d;
      }

      .cls-4 {
        fill: #f7f7f7;
      }

      .cls-5 {
        fill: #fcfcfc;
      }

      .cls-6 {
        fill: #fdfdfd;
      }
    </style>
  </defs>
  <g id="Layer_1-2" data-name="Layer 1">
    <g id="Y9Kuc8">
      <g>
        <g>
          <path class="cls-3" d="M1.15,56.53c5.68-9.4,16.84-14.45,27.23-16.46,9.21-1.31,18.89,1.57,26.72,6.41,2.68,1.7,5.11,3.87,7.67,5.74,3.7,2.93,7.85,3.65,11.64.59,3.62-2.89,7.8-6.58,12.1-8.88,13.2-8.16,30.47-4.25,42.58,4.61,4.29,3.26,9.16,7.12,9.65,12.79.18,1.71.13,3.73.14,6.26,0,4.73,0,10.95,0,16.1,0,4.15.02,7.45-.22,9.42-.23,2.72-1.02,3.23-3.23,3.21-13.5.01-97.8,0-126.8,0-1.94,0-3.53,0-4.7,0-1.85.06-3.24-.15-3.49-2.17-.87-9.04-.13-23.18-.36-31.68.02-2.05.09-4.01,1-5.83l.06-.13Z"/>
          <path class="cls-4" d="M129.2,85.5c-.78,1.01-2.81.79-6.36.79l-9.61-.09c-4.82-.04-10.17-.09-14.69-.13-1.81-.06-3.22.09-4.67-.38-3.78-1.65.39-14.23-3.8-18.69-4.14-5.25-13.04-7.13-2.95-12.83,13.14-7.74,32.43-5.89,41.54,7.08,1.37,2.16,1.22,5.85,1.22,9.41,0,3.12,0,6.71,0,9.42-.01,2.75-.02,4.52-.63,5.34l-.05.07Z"/>
          <path class="cls-5" d="M46.32,85.23c-.76,1.76-6.53.99-9.29,1.15-6.81,0-16.11,0-21.43,0-1.99-.15-4.41.27-5.83-1.22-1.35-2.49-.82-4.87-.98-8.77,0-2.79,0-5.97,0-8.66-.03-4.01-.1-7.37,2.77-10.12,7.62-6.81,21.76-10.86,31.59-6.62,1.8.67,3.56,1.45,5.29,2.31,2.95,1.52,6.37,3.04,6.93,5.08.74,3.85-4.3,5.93-6.21,9.03-3.57,4.64-1.1,13.67-2.78,17.73l-.05.09Z"/>
          <path class="cls-6" d="M57.73,85.13c-.91-1.02-1.17-2.83-1.36-5-.22-3.08.01-6.26,1.85-8.52,6.12-6.54,14.57-6.26,21.92-1.73,4.49,2.49,3.63,8.57,3.29,12.83-.19,1.38-.64,2.85-2.08,3.3-3.02.78-6.23.35-9.58.46-2.27,0-4.63,0-6.68,0-3.54,0-6.1.06-7.29-1.25l-.08-.09Z"/>
        </g>
        <g>
          <path class="cls-3" d="M100.08.66c11.13-3.22,23.45,6.87,22.41,18.43.11,6.97-5.41,13.51-11.79,15.79-5.71,1.58-13.27.6-17.69-3.7-10.09-9.53-6.65-26.43,6.88-30.47l.19-.05Z"/>
          <path class="cls-6" d="M104.39,9.67c10.72-.24,11.08,15.8.81,16.66-9.98-.15-11.8-15.62-1.02-16.64h.21Z"/>
        </g>
        <g>
          <path class="cls-3" d="M28.9.62c12.53-3.42,25.55,7.72,22.49,20.83-1.46,6.07-6.59,12.14-12.88,13.65-5.93,1.1-12.7.11-16.97-4.36-5.51-4.87-6.29-13.37-3.69-19.86,2.1-4.25,6.3-8.38,10.88-10.2l.17-.06Z"/>
          <path class="cls-2" d="M33.08,9.52c4.68-.79,9.01,3.84,9.41,8.29.21,4.16-3.63,8.02-8,8.45-10.64.57-11.91-14.79-1.61-16.71l.2-.03Z"/>
        </g>
        <g>
          <path class="cls-3" d="M79.82,20.9c8.17,6.79,7.5,19.58-1.86,25.13-3.51,2.27-7.8,3.2-11.82,2-7.26-2.16-13.84-10.43-11.5-18.23,1.63-6.74,7.75-12.29,14.94-11.99,3.57.17,7.42.78,10.09,2.98l.14.11Z"/>
          <path class="cls-1" d="M68.12,27.71c2.6-1.05,6,.87,7.21,3.25,1.09,2.21.5,5.33-1.44,6.92-2.47,2.04-7.55.56-9.2-2.36-1.77-2.82.55-6.53,3.26-7.73l.18-.07Z"/>
        </g>
      </g>
    </g>
  </g>
</svg>