<?xml version="1.0" encoding="UTF-8"?>
<svg id="Layer_2" data-name="Layer 2" xmlns="http://www.w3.org/2000/svg" viewBox="0 0 113.62 97.83">
  <defs>
    <style>
      .cls-1 {
        fill: #e1838c;
      }

      .cls-2 {
        fill: #fefefe;
      }

      .cls-3 {
        fill: #fcfcfc;
      }
    </style>
  </defs>
  <g id="Layer_1-2" data-name="Layer 1">
    <g id="Y9Kuc8">
      <g>
        <path class="cls-1" d="M8.41,78.02c-9.96-3.65-11.16-11.45-3.15-18.17,5.45-4.67,12.02-7.77,18.13-11.46,8.05-4.84,15.74-10.44,23.92-15.14,4.2-2.59,5.8-6.98,8.71-11.04,1.8-2.75,9.65-9.92,3.71-11.52-2.36-.27-5.21,1.93-8.14,2.4-10.15,1.09-3.63-8.66,1.7-11.5,3.25-1.88,7.29-1.99,10.82-.83,6.08,2,9.83,9.36,7.93,15.39-.89,3.46-3.1,6.26-5.52,8.86-1.68,1.96-4.43,4.55-2.86,7,1.85,2.37,5.17,3.34,7.77,5.13,12.29,8.66,26.97,13.7,38.59,23.4,3.39,2.84,4.76,7.98,2.43,11.91-3.07,5.36-11.76,6-18.72,6.27-2.03.12-4.24.32-5.6,1.9-1.34,1.48-1.45,4.21-1.65,6.87-.15,5.97-4.01,9.36-9.89,9.49-12.3,0-25.79,1.35-37.69.63-2.42-.2-5-.78-7.18-1.77-8.27-3.24-1.89-12.7-6.61-16.67-5.1-1.77-11.29.77-16.53-1.11l-.17-.06Z"/>
        <path class="cls-2" d="M13.43,67.04c-.24-.55.27-1.31,1.18-2.17,2.66-2.4,6.24-4.17,9.36-6.01,7.01-3.87,13.66-8.27,20.37-12.74,8.38-6.32,11.93-7.49,21.36-1.89,9.68,5.16,17.69,11.79,27.49,16.28,2.07.99,10.08,4.29,8.45,6.87-1.44,1.12-4.96.7-8.12.78-1.22-.02-2.57-.05-3.69-.44-2.78-.75-2.84-5.44-4.94-6.68-10.07-1.05-45.2-.17-54.56-.51-1.2,0-2.16.16-2.8,1.35-1.14,2.12-1.46,6.11-4.64,6.21-2.87.09-8.21.5-9.44-1l-.04-.07Z"/>
        <path class="cls-3" d="M76.14,71.17c.53,1.64.23,6.11.3,8.51-.18,2.33.55,6.63-1.86,7.26-6.89.52-27.33.05-34.51.19-1.79.02-2.84-.6-2.95-2.81-.13-2.48.07-6.06-.08-8.75.04-2.33-.17-4.78,2.42-4.96,5.76-.16,18.26-.06,27.71-.13,3.46,0,6.23-.05,7.63,0,.52.03,1.04.12,1.29.61l.04.07Z"/>
      </g>
    </g>
  </g>
</svg>