<?xml version="1.0" encoding="UTF-8"?>
<svg id="Layer_2" data-name="Layer 2" xmlns="http://www.w3.org/2000/svg" viewBox="0 0 133.65 120.57">
  <defs>
    <style>
      .cls-1 {
        fill: #e1838d;
      }
    </style>
  </defs>
  <g id="Layer_1-2" data-name="Layer 1">
    <g id="Y9Kuc8">
      <g>
        <g>
          <path class="cls-1" d="M25.93.37c3.79-1.1,5.74.55,8.59,1.15,9.72,2.04,14.52,4.8,21.99,11.37,14.2,12.51,26.89,28.29,41.06,41.02,2.72,4.49-7.6,4.56-10.29,4.28-7.34-.75-10.61-6.4-19.4-6.62-10.77-.27-13.84,6.15-22.07,6.69-2.57.17-10.34-.76-10.97-3.73-.33-1.57,22.23-21.57,21.94-23.19-5.91-5.8-11.72-13.5-19.83-16.25-4.49-1.52-13.35-.78-14.68-6.68-.63-2.79.78-7.22,3.67-8.06Z"/>
          <path class="cls-1" d="M95.91.56c10.19-1.85,19.65,8.37,17.62,18.52-2.46,15.04-22.6,18.59-29.36,4.83-4.81-9.28,1.21-21.69,11.55-23.32l.19-.03Z"/>
        </g>
        <g>
          <path class="cls-1" d="M17.94,103.16c11.58-1.66,16.98,7.21,26.53,7.23,8.72.02,11.76-6.29,19.39-7.36,11.16-1.57,16.63,7.29,26.66,7.36,9.3.06,13.53-8.44,24.62-7.32,3.78.38,16.65,5.96,18.07,9.28.87,2.03.55,5.36-1.66,6.31-4.86,2.08-9.33-3.99-13.83-4.83-2.04-.38-7.16-.46-9.21-.19-3.9.51-9.06,5.66-12.83,6.52-1.82.42-7.3.46-9.19.21-4.91-.66-10.3-5.93-14.69-6.66-1.87-.31-7.42-.32-9.33-.07-4.14.55-9.38,5.68-13.51,6.51-4.67.94-9.12.22-13.39-1.58-7.55-3.18-8-5.91-17.82-4.94-5,.49-10.12,6.2-14.62,5.36-3.16-.59-3.86-4.47-2.4-7.04,1.54-2.7,13.93-8.34,17.21-8.81Z"/>
          <path class="cls-1" d="M19.31,72.48c10.76-.97,16.39,7.55,27.21,6.53,7.05-.67,12.18-6.88,20.61-6.72s14.44,7.07,23.42,6.72c11.06-.43,15.56-9.82,29.29-5.33,3.87,1.27,14.05,5.77,13.79,10.3-.5,8.65-14.09-1.51-18.58-2.17-9.34-1.38-15.12,7.43-25.2,7.23-11.89-.25-16.31-11.27-30.27-5.63-2.91,1.18-5.81,3.86-8.63,4.72-15.62,4.75-22.34-11.05-37.45-4.76-2.13.89-7.53,4.92-9.74,4.96-2.09.03-4.02-3.57-3.66-5.64.74-4.24,15.08-9.82,19.21-10.2Z"/>
        </g>
      </g>
    </g>
  </g>
</svg>