<?xml version="1.0" encoding="UTF-8"?>
<svg id="Layer_2" data-name="Layer 2" xmlns="http://www.w3.org/2000/svg" viewBox="0 0 115.1 115.73">
  <defs>
    <style>
      .cls-1 {
        fill: #e1838d;
      }
    </style>
  </defs>
  <g id="Layer_1-2" data-name="Layer 1">
    <g id="Y9Kuc8">
      <path class="cls-1" d="M52.85.83c1.4-1.08,3.72-1.05,5.31-.22,3.68,1.93,2.58,9.32,2.86,13.62,0,5.14-.78,10.35,1.19,10.53,2.16-.21,3.55-2.28,5.17-3.73,3.56-3.21,8.77-11.56,13.43-6.08,2.01,2.82-.29,5.92-2.41,7.96-3.22,3.18-6.48,6.46-9.73,9.67-6.2,5.39-8.26,10.35-7.84,18.35.03,2.89.05,5.32,2.78,6.16,3.24.81,9.95.55,13.74.26,1.56-.22,2.71-.87,3.86-1.9,4.62-3.92,12.66-14.18,18.73-18.75,2.61-1.69,6.16.08,7.5,2.63,2.77,4.95-11.88,12.75-11.92,17.01,2.52,2.77,13.73-.03,17.58,1.93,2.97,1.55,2.66,8.02-1.22,8.5-4.18.58-9.37.06-13.52.32-1.9.11-3.12.39-3.44.99-.53,2.97,9.95,10.3,11.61,13.52,2.44,3.15-.34,8.06-3.78,8.53-5.45.04-20.05-22.32-25.82-22.83-1.22-.23-3.3-.27-4.94-.27-3.74.16-7.35-.58-9.83,1.28-2.31,2.82-1.37,8.97-.42,12.44,2.41,8.03,21.24,17.37,20.35,25.39-4.77,11.94-13.99-7-19.6-8.33-2.97-.11-.78,10.99-2.04,13.72-.56,3.8-5.48,5.49-7.66,3.16-3.12-3.81.49-13.73-2.67-17.1-5.75-.49-13.23,18.07-19.85,11.06-3.25-3.24-1.51-7,1.46-9.59,4.77-4.78,13.52-12.66,17.19-16.59,1.99-1.96,2.47-4.24,2.51-7.1-.09-3.24.15-6.64-2.61-7.73-3.58-.94-9.68-.71-13.6-.29-1.64.3-2.76,1.18-3.95,2.3-4.11,3.86-12.47,13.23-17.37,17.99-1.05.96-2.21,1.86-3.53,1.91-1.99.12-4.05-2.06-4.6-4.01-3.1-5.81,21.55-18.41,8.44-18.45-3.57-.24-7.8.32-11.32-.42-3.53-.76-3.75-6.59-1.1-8.24,4.04-1.74,9.76-.3,14.14-1.04,5.67-.67-.93-5.29-4.39-8.99-2.06-2.1-4.78-4.29-5.7-6.64-1.58-4.26,4.6-7.65,7.82-4.73,5.67,4.76,13.31,14.05,17.84,18.12,1.99,2.01,4.13,2.4,7.04,2.41,3.37-.31,10.34,1.18,12.14-2.18,1.05-3.46,1.49-10.56-.72-14.07-2.98-3.91-8.76-9.31-13.53-14.11-2.54-2.83-7.07-5.71-7.64-8.97-.45-2.53,1.54-5.17,4.02-5.62,5.12-.54,9.39,6.98,12.96,10.11,3.02,3.12,5.21,4.15,5.56.22.32-4.93.06-11.46.14-16.37,0-2.76.13-4.66,1.29-5.64l.09-.08Z"/>
    </g>
  </g>
</svg>