<?xml version="1.0" encoding="UTF-8"?>
<svg id="Layer_2" data-name="Layer 2" xmlns="http://www.w3.org/2000/svg" viewBox="0 0 131.31 143.06">
  <defs>
    <style>
      .cls-1 {
        fill: #fdfbfb;
      }

      .cls-2 {
        fill: #e1838d;
      }

      .cls-3 {
        fill: #fefefe;
      }

      .cls-4 {
        fill: #e1848e;
      }
    </style>
  </defs>
  <g id="Layer_1-2" data-name="Layer 1">
    <g id="Y9Kuc8">
      <g>
        <path class="cls-4" d="M69.94,1.34c1.05,1.36.66,3.63,2.12,4.67,2.41,1.41,6.33.58,9.07.83,9.6-.3,20.3,6.19,23.57,14.99,1.2,3.29,1.41,7.31,1.86,10.74.33,3.13,1.21,4.61,4.42,4.83,2.8.27,5.92.16,8.59,1.25,6.65,2.78,11.54,10.55,11.47,17.85.18,6.96.54,19.37-.09,27.58-.41,2.62-1.74,4.89-2.96,7.25-1.6,3.15-3.64,5.96-7.11,7.56-2.89,1.68-7.7,1.18-9.23,4.56-1.18,3-.05,7.85.21,11.45,1.41,10.76.71,21.93-9.45,26.83-2.26,1.3-4.43.87-7,.96-17.29.12-52.84.31-61.21.37-1.12.04-2.16-.22-3.32-.61-13.73-4.73-12.7-16.46-11.31-28.66.79-7.49.73-14.59,1.23-21.84.15-2.19.16-4.43-.37-6.56-.39-1.62-1.08-3.2-1.83-4.71-5.21-10.32-9.7-21.04-14.73-31.43-1.24-2.57-2.91-4.62-3.45-7.44-.44-3.16-1.3-8.76,2.4-10.35,4.74-1.42,13.07-.1,17.76-.61,3.25-.05,4.12-3.23,4.81-5.98.66-2.37,1.55-4.66,2.84-6.75,5.63-9.17,16.52-11.95,26.81-11.31,1.24-.02,2.36-.11,3.15-.46,2.22-.88,1.56-3.77,3.32-5.22,1.92-1.52,6.99-1.51,8.35.11l.08.1Z"/>
        <path class="cls-3" d="M96.19,29.86c-.07.72-.52,1.03-1.17,1.03-1.76.02-5.64,0-10.63,0h-18.49c-13.55-.07-25.99.14-30.49-.08-1.2-.57-.71-1.89-.37-3.6.68-2.53,2.21-4.9,4.29-6.64,2.67-2.31,6.1-3.11,9.52-3.29,10.79-.62,22.78.62,33.8.5,6.83-.62,13.53,5.11,13.57,11.97v.1Z"/>
        <path class="cls-3" d="M108.42,47.08c3.41-1.61,8.32.38,10.65,3.28,1.98,2.62.99,5.52,1.23,8.75-.17,9.01.36,20.7-.2,26.75-1.01,3.23-6.49,7.68-9.27,3.7-.9-1.28-1.31-3.06-1.53-4.58-.62-5.1-.7-10.2-.87-15.39-.19-5.71-.09-10.64-.96-16.36-.2-1.95-.76-4.78.85-6.08l.11-.08Z"/>
        <path class="cls-1" d="M23.8,42.21c.79,1.44.4,3.56.41,5.8-.15,4.11-.63,8.22-1.05,12.31-.17,1.69-.62,6.68-2.28,2.97-2.02-4.55-7.88-17.65-9.22-20.83-.16-.46-.19-.76.02-.94,2.02-.67,5.43-.16,8.07-.31,2.02-.02,3.4.11,3.98.91l.07.1Z"/>
        <g>
          <path class="cls-3" d="M35.22,42.45c.64-.62,1.5-.66,2.35-.65,2.62.08,6.75.07,11.62-.02,13.42.25,46.46-2.5,47.52,1.25,1.22,3.43.81,8.54.96,12.17,1.11,19.6,2.85,39.16,4.03,58.81.44,6.7,3.87,16.78-5.5,18.59-2.07.51-4.2.66-6.3.77-17.5.57-36.32-.98-53.97-.68-4.39-.34-7.66-2.84-7.46-7.41,1.73-24.76,3.03-49.52,4.72-74.28.28-2.66.39-6.52,1.94-8.47l.08-.08Z"/>
          <g>
            <path class="cls-2" d="M65.28,55.17c8.25-.15,16.13,6.27,16.92,14.55,1.26,8.71,1.22,27.1-.19,35.44-1.7,12.11-16.29,17.62-26.13,11.17-3.64-2.41-5.86-5.85-6.68-9.72-.95-4.45-1.38-11.78-1.39-19.11.18-8.44.04-14.59,1.89-21.26,1.84-6.23,8.63-11.33,15.4-11.08h.2Z"/>
            <path class="cls-3" d="M62.9,65.81c5.59-1.95,9.63,2.62,9.55,8.07.5,8.48-.77,18.41-.53,27.11.25,3.49-1.26,7.17-5.1,7.8-5.5,1.12-8.46-3.35-8.41-8.33-.47-8.31.75-17.98.54-26.51-.2-3.11.63-6.77,3.79-8.07l.17-.07Z"/>
          </g>
        </g>
      </g>
    </g>
  </g>
</svg>