<?xml version="1.0" encoding="UTF-8"?>
<svg id="Layer_2" data-name="Layer 2" xmlns="http://www.w3.org/2000/svg" viewBox="0 0 120.01 101.3">
  <defs>
    <style>
      .cls-1 {
        fill: #e1848e;
        stroke-width: 2px;
      }

      .cls-1, .cls-2 {
        stroke: #e1848e;
        stroke-miterlimit: 10;
      }

      .cls-2 {
        fill: #fff;
      }
    </style>
  </defs>
  <g id="Layer_1-2" data-name="Layer 1">
    <g id="VAgItG.tif">
      <g>
        <path class="cls-1" d="M110.52,2.06c2.9,1.49,5.64,4.18,7.18,7.12,1.79,3.74,1.18,7.29,1.31,12.11,0,6.53,0,13.05,0,19.66,0,8.46,0,17.62,0,25.69-.02,3.31.14,6.42-1.36,9.38-3.63,6.42-9.2,8.19-16.35,8.11-3.74.06-8.15.02-11.94.03-2.76,0-5.09.04-6.72.63-4.68,1.81-3.16,5.88-.77,9.12.87,1.61,3.49,3.83,2.27,5.01-1.75,1.41-3.66,1.23-6.15,1.36-9.7.02-25.3,0-35.09,0-2.13-.04-6.29.07-6.88-2.08.17-1.61,1.42-2.57,2.29-4.24,2.07-3.1,3.83-7.1-.56-9.04-2.28-.9-5.41-.73-8.61-.75-6.08-.18-12.3.57-18.14-.95-4.99-1.61-9.32-6.16-9.77-11.38-.47-15.8-.01-40.7-.17-53.89.02-3.14-.08-6.21,1.45-9.04,1.73-3.11,5.3-6.59,8.76-7.52,1.38-.36,2.65-.38,4.08-.39,16.08,0,66.01-.01,90.1.01,1.78.04,3.38.23,5.04,1.03h.03ZM72.64,85.67c-1.14-1.84-3.79-1.41-6.43-1.5-5.09.05-11-.1-15.75.07-.83.07-1.64.21-2.29.64-1.52,1.12-1.5,3.37-1.5,5.14.12,2.65.74,4.51,3.66,4.66,5.09.2,11.78.03,16.91.08,1.29-.02,2.75.02,3.91-.36,1.36-.46,1.83-1.56,2.08-2.98.26-1.75.25-4.26-.58-5.74v-.02Z"/>
        <path class="cls-2" d="M111.98,60.85c-.67,1.08-2.19.8-3.37.88-25.99-.05-84.15.09-99.17-.04-1.42-.1-2.01-.44-2.23-1.96-.41-8.39-.05-17.57-.17-27.82.17-7.13-.38-11.88.32-18.02,1.08-5.67,5.65-7.75,11.06-7.37,17.15.05,67.67-.09,85.03.03,3.62.14,6.86,2.13,8.19,5.55,1.06,2.83.77,5.11.83,8.96,0,8.97,0,19.79,0,28.49,0,2.45,0,4.84-.01,7.24-.03,2.09-.1,3.36-.48,4.04h0Z"/>
        <path class="cls-2" d="M111.94,71.15c-.67,2.76-2.77,4.68-5.47,5.86-1.43.58-3.04.85-4.68.98-28.03.61-56.13.25-84.18.15-1.89-.12-3.75-.42-5.36-1.14-2.63-1.3-4.32-3-5.12-5.51-.4-1.62.24-2.35,1.41-2.43,8.19-.09,30.89,0,54.23-.03,16.12.01,34.31-.03,47.49.01,1.05,0,1.99.58,1.69,2.09v.02Z"/>
        <path class="cls-2" d="M72.66,85.69c.84,1.48.85,3.99.58,5.74-.24,1.42-.72,2.52-2.08,2.98-1.16.38-2.62.34-3.91.36-5.13-.05-11.82.12-16.91-.08-1.47-.1-2.77-.63-3.24-2.11-.61-1.96-.64-4.69.16-6.61.93-1.98,3.41-1.73,5.29-1.8,4.13,0,10.08,0,14.55,0,2.73.08,4.41-.16,5.54,1.5v.02Z"/>
      </g>
    </g>
  </g>
</svg>