<?xml version="1.0" encoding="UTF-8"?>
<svg id="Layer_2" data-name="Layer 2" xmlns="http://www.w3.org/2000/svg" viewBox="0 0 101.08 101.05">
  <defs>
    <style>
      .cls-1 {
        fill: #e1848e;
      }

      .cls-1, .cls-2 {
        stroke: #e1848e;
        stroke-miterlimit: 10;
      }

      .cls-2 {
        fill: #fff;
      }
    </style>
  </defs>
  <g id="Layer_1-2" data-name="Layer 1">
    <g id="pXmT6C.tif">
      <g>
        <path class="cls-1" d="M68.72,1.09c4.6,1.2,8.13,4.58,10.09,8.75,1.58,3.2,1.34,7.68,4.71,9.71,2,1.3,5.21,1.53,7.73,2.73,4.45,2.07,7.94,5.96,8.94,10.98,2.51,10.85-7.85,20.8-18.47,18.53-4.26-.55-8.66-4.8-12.25-.74-4.45,4.24-14.07,13.45-18.38,17.64-1.21,1.19-2.12,2.61-1.85,4.27.27,1.92,1.31,4.13,1.85,6.13,3.55,10.25-3.48,21.3-14.41,21.45-6.72.23-12.87-4.38-15-10.66-.84-2.33-1.09-5.19-2.73-7.09-1.14-1.41-3.22-2.16-5.18-2.64-3.7-.83-6.99-2.53-9.48-5.42-9.99-11.76,1.27-29,16.16-25.13,3.71.54,7.47,3.72,10.72,1.45,4.95-4.51,13.61-14.09,18.62-19.15,1.24-1.25,2.34-2.88,2.03-4.44-.3-1.95-1.57-4.3-2.12-6.38-3.7-11.43,7.07-23.26,18.82-20.04l.19.05ZM61.7,8.95c-2.9,1.17-4.51,4.34-4.33,7.39.19,5.72,5.84,10.79,2.26,16.07-5.22,6.52-15.73,16.55-22.02,22.76-2.54,2.39-5.22,5.03-8.82,5.5-3.68.56-6.93-2.61-10.83-3.07-6.7-1.32-11.69,4.72-8.79,10.84,2.64,5.73,9.99,3.51,14.77,6.37,6.01,3.53,2.25,12.6,7.51,16.46,4.3,3.19,11.24,1.07,12.04-4.64.65-3.27-.83-6.56-2.08-9.5-1.49-3.33-1.11-6.48,1.23-9.27,7.02-7.34,14.59-16.53,21.83-23.19,5.84-5.2,9.15-5.19,16.1-1.81,3.46,1.41,8.34,1.05,10.61-1.98,2.49-3.16,1.9-8.32-1.1-10.62-2.67-2.1-6.29-1.88-9.47-2.66-2.1-.48-4.1-1.43-5.41-3.07-2.52-2.96-1.7-7.66-3.28-11.3-1.47-3.86-6.23-5.95-10.05-4.36l-.16.07Z"/>
        <path class="cls-2" d="M61.86,8.88c3.82-1.58,8.58.5,10.05,4.36,1.57,3.64.76,8.34,3.28,11.3,1.31,1.65,3.31,2.6,5.41,3.07,3.17.78,6.8.57,9.47,2.66,5.82,5.2,1.61,14.65-6.61,13.32-4.74-.61-8.83-4.71-13.55-2.52-2.02.8-3.81,2.17-5.45,3.6-7.25,6.66-14.81,15.85-21.83,23.19-1.27,1.62-2.1,3.28-2.13,5.2-.13,3.17,2.47,6.54,3,10.19,1.24,6.3-4.3,11.24-10.28,8.98-6.15-2.18-4.19-9.63-6.6-14.51-.78-1.54-2.09-2.74-3.66-3.44-3.77-1.7-8.54-.84-11.67-3.26-6.36-5.38-1.8-15.09,6.67-13.42,4.77.73,8.62,4.76,13.24,2.4,2.49-1.08,4.44-2.98,6.41-4.83,5.39-5.15,15.55-15.37,20.24-20.54,2.16-2.21,3.6-4.85,2.73-7.93-.62-3.09-3.09-6.67-3.2-10.36-.18-3.05,1.43-6.23,4.33-7.39l.16-.07Z"/>
      </g>
    </g>
  </g>
</svg>