<?xml version="1.0" encoding="UTF-8"?>
<svg id="Layer_2" data-name="Layer 2" xmlns="http://www.w3.org/2000/svg" viewBox="0 0 96.76 98.38">
  <defs>
    <style>
      .cls-1, .cls-2, .cls-3 {
        stroke: #e1848e;
        stroke-miterlimit: 10;
      }

      .cls-1, .cls-3 {
        fill: #e1848e;
      }

      .cls-2 {
        fill: #fff;
      }

      .cls-3 {
        stroke-width: 5px;
      }
    </style>
  </defs>
  <g id="Layer_1-2" data-name="Layer 1">
    <g id="_7aLgnA.tif" data-name="7aLgnA.tif">
      <g>
        <path class="cls-3" d="M83.96,4.83c2.02,1.69,3,4.36,4.15,6.72,1.95,4.29,4.34,8.93,5.62,13.5,2.04,6.52-2.36,11.74-3.72,17.99-1.37,4.84-.9,10.07.7,14.76,1.11,3.66,3.03,6.84,3.48,10.5.51,6.11-3.7,12.93-6.07,18.45-1.15,2.35-2.12,4.98-4.11,6.7-4.27,3.29-11.33,2.17-16.95,2.41-16.84-.07-34.87.14-51.32-.08-8.01-.34-12.5-2.77-13.05-11.12-.39-18.86-.07-49.19-.12-68.62.02-2.84.44-6.08,1.58-8.31C6.8,2.64,13.16,2.66,18.69,2.51c6.33-.04,12.4,0,20.2,0,11.46.01,21.89,0,32.17,0,4.61.14,9.45-.3,12.88,2.32h.01ZM81.71,8.3c-1.92-1.75-6.37-1.63-9.52-1.71-13.27,0-28.6,0-42.25,0-4.72.03-9.04-.07-13.48.07-1.47.07-2.82.17-4.19.48-2.12.5-3.07,1.45-3.55,3.48-.41,1.86-.46,3.69-.5,5.65-.02,9.06,0,18.24,0,27.58.04,13.12-.08,27.51.05,39.67.17,2.48.21,4.83,1.42,6.28,1.84,2.27,8.07,1.9,11.62,1.97,6.25.01,12.57,0,20.2,0,10.59-.01,21.48.02,31.84-.01,2.13-.05,4.12-.12,6.12-.59,2.12-.54,3.06-1.55,3.54-3.64.27-1.26.37-2.49.44-3.84.12-4.02.03-8.05.06-12.32,0-17.15,0-36.88,0-53.55-.07-3.29.13-7.71-1.76-9.52h0ZM88.37,31.74c1.4,1.29,3.05-.75,3.25-2.15.21-1.08-.06-2.33-.75-3.16-.87-1.14-2.18-1.33-2.88,0-.81,1.49-.76,4.07.37,5.3h.01ZM88.37,72.47c1.41,1.27,3.06-.81,3.26-2.2.67-3.09-3.1-6.26-4.06-1.94-.32,1.28-.07,3.25.79,4.13h.01Z"/>
        <path class="cls-2" d="M81.71,8.3c1.9,1.81,1.69,6.27,1.76,9.52,0,16.68,0,36.4,0,53.55-.02,4.28.06,8.3-.06,12.32-.06,1.35-.16,2.58-.44,3.84-.48,2.09-1.42,3.1-3.54,3.64-2,.47-4,.54-6.12.59-10.36.04-21.25,0-31.84.01-7.63,0-13.94,0-20.2,0-3.58-.07-9.79.28-11.62-1.97-1.18-1.44-1.28-3.8-1.42-6.28-.13-12.16,0-26.56-.05-39.67,0-9.34-.01-18.52,0-27.58.04-1.97.09-3.8.5-5.65.48-2.03,1.43-2.98,3.55-3.48,1.37-.31,2.72-.41,4.19-.48,4.45-.15,8.77-.04,13.48-.07,13.66,0,28.99,0,42.25,0,3.19.08,7.6-.03,9.52,1.71h0ZM17.22,83.14c2.01,1.79,6.62,1.58,9.73,1.64,11.1,0,27.66,0,38.7,0,2.49-.02,4.91-.09,6.68-.59,2.61-.69,3.24-2.24,3.58-4.82.11-.83.17-1.77.19-2.84.05-13.15,0-39.38.02-53.13.01-1.64-.05-3.55-.27-4.97-.19-1.26-.49-2.19-1.03-2.87-.68-.85-1.75-1.33-3.43-1.62-.86-.14-1.71-.23-2.6-.28-5.35-.18-9.88-.03-16.41-.08-9.33.02-19.24-.05-28.4.03-1.55.05-3.03.15-4.5.48-1.93.46-2.86,1.29-3.36,2.94-.46,1.37-.58,4.17-.57,6.16,0,5.87,0,12.53,0,18.72,0,10.78,0,22.27,0,32.68.05,2.65-.16,6.81,1.66,8.53h0Z"/>
        <path class="cls-2" d="M88.36,31.73c-1.13-1.23-1.18-3.81-.37-5.3.7-1.32,2.01-1.14,2.88,0,.69.82.95,2.08.75,3.16-.2,1.4-1.85,3.44-3.25,2.15h-.01Z"/>
        <path class="cls-2" d="M88.36,72.46c-.86-.88-1.11-2.85-.79-4.13.97-4.33,4.74-1.15,4.06,1.94-.2,1.39-1.85,3.47-3.26,2.2h-.01Z"/>
        <path class="cls-1" d="M17.21,83.13c-1.82-1.72-1.61-5.9-1.66-8.53,0-10.42,0-21.91,0-32.68,0-6.18,0-12.86,0-18.72-.01-1.99.11-4.78.57-6.16.5-1.65,1.43-2.48,3.36-2.94,1.47-.33,2.95-.43,4.5-.48,9.17-.07,19.07,0,28.4-.03,6.54.05,11.06-.1,16.41.08.89.05,1.74.14,2.6.28,1.68.29,2.76.77,3.43,1.62.54.68.84,1.61,1.03,2.87.21,1.42.28,3.33.27,4.97-.02,13.76.03,39.98-.02,53.13-.02,1.06-.09,2.01-.19,2.84-.34,2.57-.98,4.12-3.58,4.82-1.76.5-4.19.56-6.68.59-11.05,0-27.6,0-38.7,0-3.12-.05-7.72.15-9.73-1.64h0ZM71.18,18.39c-1.06-.92-4.65-.67-6.5-.72-12.92.12-29.92-.25-42.63.15-1.76.23-2.18,1-2.33,2.62-.15,14.49-.17,43.12,0,57.57-.04,2.9,2.91,2.61,5.42,2.67,4.76.02,8.96,0,14.82,0,7.06,0,14.56,0,21.54,0,2.36,0,4.56.03,6.78-.04,1.79-.05,3.58-.28,3.64-2.51.29-14.54.01-30.31.11-44.81-.32-4.46.82-12.94-.84-14.93h0Z"/>
        <path class="cls-2" d="M71.19,18.4c1.01,1.02.75,2.69.84,4.06.02,3.07,0,6.34,0,10.87-.09,14.51.19,30.27-.11,44.81-.07,2.22-1.84,2.47-3.64,2.51-2.22.07-4.42.04-6.78.04-6.98,0-14.48,0-21.54,0-6.24-.02-10.53.03-15.75-.02-2.54-.07-4.44-.1-4.49-2.66-.18-14.48-.16-43.11,0-57.57.15-1.62.57-2.39,2.33-2.62,12.7-.4,29.71-.03,42.63-.15,1.86.04,5.45-.2,6.5.72h0ZM43.73,31.17c-14.05,1.23-21.08,17.74-12.92,29.03,8.67,12.02,26.74,9.39,32.13-4.26,5.04-12.72-5.7-26.15-19.18-24.77h-.02Z"/>
        <path class="cls-1" d="M43.75,31.17c13.49-1.38,24.22,12.05,19.18,24.77-5.39,13.65-23.46,16.28-32.13,4.26-8.15-11.29-1.13-27.79,12.92-29.03h.02ZM45.04,35.13c-8.74.34-15.35,8.68-13.4,17.24,3.03,13.24,20.45,15.69,26.81,3.62,5.06-9.72-2.42-21.48-13.38-20.87h-.02Z"/>
        <path class="cls-2" d="M45.06,35.13c10.96-.61,18.44,11.14,13.38,20.87-6.36,12.07-23.78,9.61-26.81-3.62-1.95-8.56,4.66-16.9,13.4-17.24h.02Z"/>
      </g>
    </g>
  </g>
</svg>