<?xml version="1.0" encoding="UTF-8"?>
<svg id="Layer_2" data-name="Layer 2" xmlns="http://www.w3.org/2000/svg" viewBox="0 0 126.62 129.96">
  <defs>
    <style>
      .cls-1, .cls-2, .cls-3 {
        stroke: #e1848e;
        stroke-miterlimit: 10;
      }

      .cls-1, .cls-3 {
        fill: #e1848e;
      }

      .cls-2 {
        fill: #fff;
      }

      .cls-3 {
        stroke-width: 5px;
      }
    </style>
  </defs>
  <g id="Layer_1-2" data-name="Layer 1">
    <g id="_6hdbFc.tif" data-name="6hdbFc.tif">
      <g>
        <path class="cls-1" d="M123.23,90.92c-.96-.54-1.09-2.76-1.11-3.96.42-13.61.7-27.34-.08-40.94,0-.94.03-1.87.25-2.75.62-2.4,1.88-2.44,1.75,0,0,4.34,0,15.27,0,23.08,0,7.13,0,15.45,0,22.01-.05.75.05,2.55-.81,2.56h0Z"/>
        <path class="cls-3" d="M91.76,126.32c-17.36,1.49-41.64,1.72-58.96-.47-2.16-.53-4.49-1.56-5.35-3.66-.83-5.54-.26-13.66-.58-20.21-5.67-4.9-14.56-.05-19.74-6.58-2.75-3.26-3.61-7.82-3.91-11.96-.22-13.96-2.31-29.76,1.74-43.27,4.94-11.7,14.4-4.01,20.69-9.01,4.35-7.16-4.45-26.53,6.77-27.97,20.91-1.01,43.18-.31,61.82-.68,2.69.76,5.02,3.28,5.76,6.04,1.02,4.75.35,10,.54,14.88-.25,8.56.33,9.88,9.14,9.62,7.17-.34,12.35,3,13.47,10.3,1.42,13.05.96,29.26.53,41.13-.16,3.84-.71,7.85-3.43,10.83-4.8,5.74-13.26,3.08-19.51,5.39-2.04,10.42,5.07,23.78-8.99,25.62Z"/>
        <path class="cls-2" d="M92.71,121.41c-11,1.27-45.69,1.06-56.54.28-1.48-.08-3.15-.54-4.3-1.46-.3-1.44-.59-2.88-.7-4.37-.06-14-.21-29.67.05-44,.18-2.75,2.66-3.57,5.14-3.47,18.04,0,36.3-.02,54.41-.01,2.51.07,4.86-.34,5.33,2.49.35,15.51.49,33.34-.14,48.93-.74.88-2.15,1.36-3.25,1.6Z"/>
        <path class="cls-2" d="M94.61,28.38c-.64.67-1.65.92-2.67.99-15.72.11-46.43.06-57.18.03-1.01-.01-1.9-.23-2.52-1-1.6-2.25-1.02-5.53-1.14-8.23.05-2.91-.12-5.81.11-8.67.24-2.41,1.56-4.51,4.56-4.59,13.37.02,44.34-.23,56.92.09,1.36.21,2.21,1.31,2.52,2.5.27.95.36,2.02.37,3.02.03,2.98,0,6.15,0,9.28-.12,2.09.43,4.94-.97,6.58h0Z"/>
        <path class="cls-2" d="M27.22,44.75c2.32,2.26,1.51,6.46-1.52,7.64-4.01,1.64-8.16-2.82-5.95-6.67,1.44-2.63,5.37-3.17,7.45-1.01l.03.03Z"/>
        <path class="cls-1" d="M83.87,108.62c.22.49.08,1.1-.39,1.63-.97,1.08-2.54,1.37-3.91,1.5-9.51.48-22.81.53-32.23-.04-.99-.11-2.04-.33-2.88-.91-1.49-1-1.61-2.79.35-3.19.71-.16,1.69-.13,2.57-.14,10.83.02,23.12-.03,33.68.01,1.01.03,2.37.21,2.8,1.13h0Z"/>
        <path class="cls-1" d="M82.46,93.49c.76.76.76,2.08.1,2.88-.51.65-1.3.91-2.11.98-7.55.13-25.11,0-32.82.04-1.33.03-2.67-.04-3.14-1.54-.32-.96-.07-2.14.77-2.75.55-.41,1.17-.55,1.94-.62,9.8-.11,22.01-.02,31.79-.03.5.01,1,.04,1.47.12.79.13,1.52.42,2,.92h.01Z"/>
        <path class="cls-1" d="M83.01,79.46c1.11,1.37.65,3.21-1.17,3.48-7.48.95-23.07.77-31.79.5-2-.13-4.63.01-5.93-1.77-.76-1.1-.23-2.42,1.04-2.92.83-.36,1.87-.41,2.81-.43,10.23-.02,22.9-.19,33.06.1.8.14,1.48.46,1.97,1.02h.01Z"/>
      </g>
    </g>
  </g>
</svg>