<svg xmlns="http://www.w3.org/2000/svg" xml:space="preserve" width="183.887" height="105.473"><path d="M10.335 92.329c0 .894-.373 1.34-1.117 1.34H7.026v6.833c0 .546-.135 1.006-.413 1.382-.305.419-.726.629-1.261.629-.514 0-.92-.203-1.223-.605a2.335 2.335 0 0 1-.447-1.405V93.67H1.475c-.429 0-.778-.161-1.056-.475A1.617 1.617 0 0 1 0 92.09c0-.39.119-.716.354-.962.237-.25.553-.377.94-.377h7.581c.44 0 .793.156 1.06.462.267.303.4.678.4 1.116M22.855 96.397c0 1.717-.505 3.164-1.513 4.308-1.056 1.203-2.439 1.808-4.146 1.808h-.289c-1.236 0-2.399-.493-3.487-1.486-1.3-1.17-1.951-2.653-1.951-4.458 0-1.672.514-3.12 1.539-4.336 1.071-1.299 2.425-1.949 4.067-1.949h.225c1.558 0 2.887.632 3.995 1.901 1.038 1.218 1.56 2.617 1.56 4.212m-3.432.005c0-.752-.207-1.383-.632-1.913-.421-.516-.999-.782-1.733-.782h-.24c-.64 0-1.145.303-1.517.904-.324.508-.488 1.103-.488 1.791 0 .733.187 1.363.562 1.883.403.59.968.884 1.683.884.75 0 1.346-.278 1.785-.835.387-.502.58-1.15.58-1.932M181.195 76.875c-1.961.515-3.324.459-3.324.459-8.907 0-16.124-7.047-16.124-15.739 0-5.557 2.942-10.455 7.405-13.243 1.567-.981 2.669-1.1 2.669-1.1 1.946-.17 3.556-1.098 3.172-2.834-.38-1.734-1.656-4.091-3.724-5.456-2.538-1.683-5.123-.331-5.123-.331-4.849 2.35-8.853 6.11-11.447 10.733a30.218 30.218 0 0 1 2.674 12.369c0 4.221-.928 8.425-2.685 12.21 4.481 7.878 13.188 13.169 23.183 13.544 5.029.186 5.901-6.384 6.007-7.829.103-1.445-.722-3.296-2.683-2.783M111.42 55.977c-.679-3.562-2.079-6.853-4.081-9.683-4.505-5.965-11.548-9.826-19.32-10.329-.064-1.199-.1-6.651 4.186-10.203 0 0 1.094-.613.328-1.364-.76-.744-5.659 1.314-8.014 8.238 0 0 1.173-6.756-.088-9.771 0 0-.329-.945-1.021-1.149-.691-.206-2.645 5.842-2.34 10.17l-.023.006c-1.393-4.111-5.534-8.939-6.087-8.48-.559.458-.496 1.456-.496 1.456 0 3.266 3.693 9.045 3.693 9.045-4.844-5.473-10.163-5.483-10.579-4.5-.414.985.837 1.13.837 1.13 4.883 1.487 7.027 5.856 7.658 7.438-1.774.858-3.342 2.1-3.618 3.854 0 0-.69 5.127 1.831 7.155 0 0 1.11 1.227 3.467-.837 2.355-2.062 5.693-2.104 5.693-2.104 8.783-1.466 17.066 4.303 18.49 12.875 1.431 8.571-4.532 16.708-13.32 18.17-6.21 1.03-12.172-1.548-15.633-6.18 0 0-1.793-2.322-3.524-6.223a29.232 29.232 0 0 1-4.199 12.495c3.181 4.523 6.081 6.021 6.081 6.021 5.36 3.484 12.057 5.047 18.945 3.9 6.616-1.104 12.253-4.519 16.188-9.253 4.559-6.5 6.361-14.439 4.946-21.877" style="fill:#d56b79"/><path d="M60.413 43.365a14.257 14.257 0 0 0-.281-.263c-10.499-9.606-26.986-8.672-36.83 2.081-4.71 5.151-7.054 11.613-7.049 18.02 0 0-.665 6.577 5.854 15.81 0 0 4.67 5.991 5.864 10.701 1.198 4.709.032 10.866.032 10.866-.298 1.273-1.038 4.898 3.092 4.893 4.133 0 5.779-3.487 5.779-3.487 5.342-9.044-.78-19.458-4.327-24.602-3.556-5.147-5.09-8.864-5.09-8.864-1.999-5.429-.915-11.831 3.336-16.479 6.013-6.568 16.084-7.145 22.496-1.272 6.412 5.867 6.735 15.949.724 22.519 0 0-1.854 2.777-4.868 3.633-3.02.849-2.588 2.445-2.588 2.445.322 3.226 5.007 5.442 5.007 5.442 4.028 1.795 9.75-4.839 9.75-4.839.477-.523.93-1.06 1.359-1.607l-.001-.001c8.117-11.077 6.924-26.06-2.259-34.996M153.527 50.427c-3.771-7.884-11.317-13.774-20.286-14.741l-3.808-.369c-5.962-.758-9.906-2.908-9.906-2.908-4.405-1.897-6.38-6.431-6.38-6.431s-.382-.978-.512-1.405a12.484 12.484 0 0 1-.581-3.724c0-6.725 5.458-12.18 12.184-12.18 3.686 0 7.006 1.622 9.222 4.224.173.197.576.601 1.192 1.569.619.967 1.254 1.025 1.254 1.025 1.354.165 2.878-.849 3.977-4.146 1.097-3.305-.812-5.096-.812-5.096A21.247 21.247 0 0 0 123.993 0c-11.769 0-21.322 9.546-21.322 21.319 0 2.041.315 3.997.82 5.86.422 1.572 1.534 4.21 1.534 4.21s3.767 7.518 11.167 11.173c6.432 3.171 15.142 3.302 15.142 3.302 8.144.476 14.508 7.57 14.508 15.729 0 8.694-7.218 15.741-16.123 15.741-6.304 0-11.755-3.526-14.411-8.663 0 0-.938-2.01-1.994-5.531-.354 4.879-1.92 9.712-4.592 14.031 1.625 2.363 2.947 3.351 2.947 3.351 4.718 4.325 11.069 6.966 18.05 6.966 10.554 0 19.658-6.049 23.882-14.787a27.627 27.627 0 0 0 2.273-10.968 28.69 28.69 0 0 0-2.347-11.306M152.868 102.102V99.35h-3.493v2.752c0 .271-.18.468-.446.468-.271 0-.456-.196-.456-.468v-6.299c0-.268.185-.463.456-.463.265 0 .446.197.446.463v2.625h3.493v-2.625c0-.271.191-.463.456-.463.262 0 .448.192.451.463v6.299h-.003c0 .274-.187.468-.448.468-.268 0-.456-.194-.456-.468M158.989 102.462a2.704 2.704 0 0 1-2.054-.891c-.604-.636-.916-1.4-.914-2.261 0-.074 0-.155.012-.224V98.745a3.311 3.311 0 0 1 .73-2.346c.54-.685 1.298-1.03 2.226-1.029.97-.001 1.75.357 2.286 1.073.49.641.729 1.472.727 2.477v.189c.002.938-.257 1.72-.781 2.346-.55.671-1.306 1.006-2.224 1.006h-.008zm-1.553-5.355c-.278.447-.425 1.052-.425 1.814.003.726.15 1.323.453 1.8.357.552.841.818 1.516.822.688-.004 1.191-.266 1.56-.815.321-.479.487-1.082.489-1.807-.002-.712-.171-1.305-.509-1.801-.379-.559-.874-.824-1.54-.829-.704.005-1.199.267-1.544.816M170.372 102.39c-.175-.002-.322-.032-.419-.161-.058-.098-.069-.217-.074-.405l.002-5.797c0-.326.188-.564.491-.564h3.71c.271 0 .459.193.459.467a.44.44 0 0 1-.459.456h-3.297v1.968h3.223c.271 0 .459.197.459.465a.44.44 0 0 1-.459.457h-3.223v2.192h3.374c.291 0 .512.183.512.469 0 .28-.223.454-.512.454h-3.787zM136.96 102.387c-.176-.001-.327-.023-.416-.151-.066-.108-.073-.227-.077-.411v-5.797c0-.324.189-.564.493-.564h3.71c.266 0 .455.192.455.465a.44.44 0 0 1-.455.457h-3.301v1.967h3.225c.273 0 .455.2.455.467a.438.438 0 0 1-.455.456l-3.225-.001v2.193h3.375c.292 0 .516.18.516.47 0 .28-.228.45-.516.45h-3.784zM177.915 102.39c-.354-.002-.568-.267-.568-.643v-5.868c0-.263.195-.446.458-.446.257 0 .447.186.447.446v5.588h3.07c.265 0 .451.198.451.469a.437.437 0 0 1-.451.454h-3.407zM89.233 102.393c-.209-.001-.363-.023-.485-.107-.131-.101-.164-.261-.165-.457v-5.814c0-.324.189-.564.493-.564h1.121c1.468 0 2.295.593 2.299 1.759.007.639-.243 1.125-.712 1.39.321.112.592.287.804.525.298.324.439.743.439 1.222.004.619-.184 1.127-.562 1.497-.381.368-.887.551-1.508.551h-1.724zm.269-.923h1.225c.383 0 .688-.09.918-.268a.952.952 0 0 0 .395-.809c-.002-.404-.164-.7-.51-.943-.305-.211-.673-.321-1.118-.321h-.91v2.341zm0-3.182h.694c.377 0 .687-.076.935-.227.296-.179.424-.407.428-.741a.822.822 0 0 0-.34-.697 1.327 1.327 0 0 0-.807-.253h-.91v1.918zM97.981 102.475c-.802.003-1.498-.301-2.056-.892-.608-.642-.917-1.403-.917-2.266 0-.077.001-.158.008-.23V98.747a3.32 3.32 0 0 1 .739-2.349c.544-.688 1.299-1.033 2.226-1.028.979-.005 1.761.354 2.301 1.069.493.645.731 1.477.73 2.48v.192c.001.937-.262 1.729-.786 2.357-.554.668-1.312 1.005-2.237 1.005h-.008zm-1.55-5.373c-.28.449-.424 1.058-.424 1.818 0 .736.153 1.335.455 1.808.354.558.842.82 1.516.826.685-.006 1.191-.269 1.561-.821.323-.478.482-1.076.483-1.812-.001-.712-.167-1.304-.505-1.8-.378-.562-.876-.829-1.539-.831-.706.001-1.202.266-1.547.812M104.056 101.957c-.512-.432-.766-1.055-.765-1.827v-4.248c0-.137.053-.262.14-.355a.468.468 0 0 1 .355-.161c.298.004.495.216.497.517l-.002 4.164c.002.492.168.866.496 1.145.334.285.751.43 1.263.431.526-.001.927-.14 1.225-.413.296-.272.443-.646.446-1.162v-4.164c0-.303.203-.513.501-.517.294.004.489.219.489.517v4.248c.002.768-.271 1.393-.815 1.831-.492.392-1.141.58-1.925.58s-1.431-.19-1.905-.586M112.256 101.978l-.002-5.608h-1.204a.435.435 0 0 1-.451-.451c0-.271.182-.469.451-.469h3.341c.269 0 .462.192.462.469 0 .264-.193.451-.462.451h-1.229v5.608c0 .316-.161.563-.456.563-.29 0-.45-.247-.45-.563M165.13 101.978l-.002-5.606h-1.207a.436.436 0 0 1-.452-.453c0-.272.186-.469.452-.469h3.341c.269 0 .462.192.462.469 0 .264-.193.453-.464.453h-1.225v5.606c0 .317-.165.564-.459.564-.288 0-.446-.248-.446-.564M117.186 102.057v-6.258c0-.268.191-.459.458-.459.259 0 .446.192.446.459v6.258c0 .268-.188.458-.446.458a.439.439 0 0 1-.458-.458M123.247 102.528c-.689.004-1.32-.266-1.868-.795-.726-.693-1.084-1.672-1.082-2.892-.002-.912.231-1.703.705-2.368.56-.78 1.35-1.177 2.312-1.175.97-.002 1.761.406 2.314 1.212.479.682.722 1.488.722 2.411 0 .736-.17 1.451-.493 2.146l.605.676a.519.519 0 0 1 .139.367c0 .232-.155.417-.385.417a.552.552 0 0 1-.378-.17l-.564-.563c-.461.493-1.146.733-2.019.733h-.008v.001zm-1.47-5.482c-.323.484-.492 1.082-.495 1.795.003.743.165 1.363.478 1.877.38.603.882.887 1.559.892.561-.002.989-.175 1.315-.523l-.58-.574a.38.38 0 0 1-.131-.281.435.435 0 0 1 .149-.331.469.469 0 0 1 .34-.136.424.424 0 0 1 .325.128l.399.391c.176-.505.258-.986.26-1.448-.002-.688-.177-1.279-.53-1.782-.407-.562-.909-.829-1.552-.832-.659.001-1.16.268-1.537.824M129.599 101.957c-.515-.435-.765-1.056-.762-1.828v-4.25a.473.473 0 0 1 .136-.349.447.447 0 0 1 .356-.165c.296.004.495.214.498.514l-.003 4.17c.003.491.166.865.495 1.144.336.283.75.428 1.26.428.522 0 .93-.14 1.229-.412.289-.272.442-.646.445-1.159v-4.17c0-.3.199-.51.498-.514.294.004.489.216.489.514v4.25c0 .77-.276 1.392-.815 1.832-.492.391-1.136.579-1.924.579s-1.427-.187-1.902-.584" style="fill:#d56b79"/></svg>